<svg xmlns="http://www.w3.org/2000/svg" xmlns:xlink="http://www.w3.org/1999/xlink" viewBox="0 0 316.2 416.8">
  <script xlink:href="../assets/js/main.js" />
  <g id="Capa_2" data-name="Capa 2">
    <g id="Capa_1-2" data-name="Capa 1">
      <path d="M315.3,281.3c0-.1,0-1,.2-1.1s.6-.3.4-.7-.1-1-.3-1.2-1-.5-1.2-.8a2.5,2.5,0,0,1-.4-1.2c0-.3.1-1,.1-1.2s-3-7.4-3-7.4v-1.6a3.2,3.2,0,0,1-.1-.8l-.8-1.3-.9-.7v-4h-1.1a1.7,1.7,0,0,1-1.2-1,15.6,15.6,0,0,1-.5-2.2c-.1-.4-.6-.9-.1-1.3l.8-.7c.2-.2.1-1,.1-1a22,22,0,0,1-2.8-1.8v-1.1a4.4,4.4,0,0,0-.7-.8l-4.2-3.9h-1.3a19.1,19.1,0,0,1-.6-2.1,2.9,2.9,0,0,0-.7-1.2c-.2,0-1-.4-1.4-.3s-.7.6-.9.4l-.6-.9a16.2,16.2,0,0,0-2.3-.1c-.1.1,0,.9-.5.9s-.9.3-1.1,0,.5-1,.5-1L301.4,231h.8c.1,0,.4-.6.4-.7v-.8l1.8-1.6a4.8,4.8,0,0,0,0-1.2l-.9-1.4H302l-.2-.4.2-.9c0-.2-1-1.9-1-2s-.4-2.3-.4-2.5-.6-1.3-.7-1.3a6.5,6.5,0,0,0-1.6.3h-1l-1.5-2.4-.3-1.3a9.9,9.9,0,0,0-.9-1.5,18.3,18.3,0,0,1-.2-2.1l-.7-2.1-1.2-2.2.2-4.4s-.2-1.5-.3-1.4-2.6-3.1-2.6-3.1l.6-1.8a16.3,16.3,0,0,0,.7-3c-.1-.3-.1-5.8-.1-5.9s.4-1.8.4-2a5.1,5.1,0,0,0-.4-1.4c-.2-.4-.8-.9-.5-1.2s.7-.3.8-.6v-1.3l-.8-1.6.7-1.3,3-1.3a8,8,0,0,0,2.2-1.7,12.1,12.1,0,0,0,.5-1.4,7.8,7.8,0,0,0-.2-1.4,8.3,8.3,0,0,1-.8-1.2l-.2-2a1.8,1.8,0,0,0,.7-.5,6.6,6.6,0,0,0,.1-1.4v-.9l1.6-2,1.8-1,1.1-1.3v-1.1l-1-1.2s-.7-1.8-.7-2-.2-2-.2-2.2a26,26,0,0,0-2.8-1.5l-3.2.2s-.3-.7-.7-.7a4.1,4.1,0,0,0-1.6.2c-.2.2-.8,1.1-1.2,1.2l-1.4.7-1.1,1.1H286l-1.4-.7H283l-.7.6H281l-1.2.9h-2.6l-1.7-.5-1.5.3s-.6.6-.8.6h-1.9c-.1,0-.3.4-.8.6a4,4,0,0,1-1.9.2l-2.6-.9a9,9,0,0,0-3.1-.4c-.9.1-1.2-.4-2.3-.5s-2.5-.3-2.6,0,.3.7,0,1.1-.5.5-.8.7a7.3,7.3,0,0,0-.9.9,4.4,4.4,0,0,1-1.2.8,4.1,4.1,0,0,1-1.4-1c-.2-.4-.7-.9-1.2-.8l-1.7,1L234,138.1s-.5-.6-.9-.6h-2.5l-.9.9-1.3-.2c-.1-.1-.6-.8-1.2-.8l-2.1-.5-.7.2-2.1-2.2h-6.8a5.5,5.5,0,0,0-1.8.6c-.5.3-.5,1-.8,1.1a3.5,3.5,0,0,0-1.4.3c-.1.1-.1.5-.5.6a3.6,3.6,0,0,1-1.4.2l-1.2-1.1-1-.4c-.3,0-.5.3-.7.3H202s-.2-.4-.4-.4h-.8l-1,.4-2.8-.2a5.5,5.5,0,0,0-.7-.9l-1.1.2s-.2.5-.6.6h-1.1l-.4-.8-1.2-.2-.7.6c-.2.3-.2.5-.4.6H186l-1-.9s-.7-.5-.5-1.1a1.3,1.3,0,0,0-.1-.9l-2-2.7-.3-2.8A7.6,7.6,0,0,0,181,127c-.2-.1-1.5.5-1.5.5h-3.7l-.3-.5.3-.9-1.3-1.3.3-1.4a6.6,6.6,0,0,0-.1-1.3c0-.2-.4-1.5-.4-1.7s.4-3.6.4-3.6l.5-3.4s.8-.9,1-.9.5.5,1-.2-.1-2.3-.1-2.5a4.4,4.4,0,0,1,.2-1c.1-.2-.4-1.1-.5-1.4s-.3-2.6-.3-2.9-.1-1.7-.1-1.7l-6.8-6.2s-2.2-11-2.2-11.2a12.7,12.7,0,0,0-.7-1.2l-1.7-.5a3.5,3.5,0,0,0-1.3.5,3.1,3.1,0,0,1-1.1.5l-.5-.8s.2-1,.2-1.2a.7.7,0,0,0-.3-.6,4.1,4.1,0,0,1-.7-1.1c0-.2-.1-.9-.1-.9l-1.5.2s.1.9-.3,1.1l-1.2.2c-.1,0-.5.6-.7.9a.7.7,0,0,1-.4.5l-4.2.4,1.9-5.6,3.4-4,1.2-1.4,1.9-4.5.8-.8.6-.7-.2-.7a6.2,6.2,0,0,0-.9-1.2l.5-2.8,1.1-1.7V55.7l2-3.2,1.1-.5,1.9-2.4.9-3,1.3-1.8,1.7-4.9,2-3.6,2.1-1.6,1.8-.9,1.8-.2,4-6.5,3-6.3,6.3-1.3,6.4-2,2.3-1.1.9-1.6-.5-.9a3.4,3.4,0,0,1,.3-.8l.3.5c0,.1,0,.5.2.5h.8l.8-1.1,1.7-1,1.1-.3.2-1.1c.1-.2-.9-1.7-.9-1.7l-2-3.2-.2-1.9-1-.7-1.5.2a5.9,5.9,0,0,0-1.1-.9h-1.4l-1.6-1L196,.3l-1.3.2-1.9.2v.5h.7c.1,0,.3-.5.7-.2l.5.4c.3.2.7.4.2.5a9.3,9.3,0,0,0-1.4.5c-.1.2-.7.5-.7.4s.2-.8-.4-.9-.6.4-.5.7a.6.6,0,0,1-.1.6c-.1.2-.2,0-.5.3l-.7.6c-.2,0-.7-.4-.7-.4s-.5-.1-.3-.3.3-.9,0-1,.1.9-.7,1.3-1.7.2-1.7.6a.8.8,0,0,0,.3.8,1.2,1.2,0,0,1,.8.1,2.3,2.3,0,0,1,.7.8c.1.3.5.6.5.7a1.9,1.9,0,0,1-.9.5c-.2.1-.9-.4-1-.2s.6.8-.1.9l-1,.2s-.5.1-.5-.4v-1s.5.1.6-.2-.2-.7-.2-.7-.8-.5-.9-.3-.1.6-.5.6-.3-.1-1-.1-1-.3-1.2-.1-.2.2-.6.1-.6-.2-.7-.1a1.4,1.4,0,0,0-.2.6,6.2,6.2,0,0,0,1.2.8s.3.3.3.5V8.9l-.3,1.4-.8,1.3a4.5,4.5,0,0,1-1.5,3c-1.4,1-1.9.7-3.1,1.8s-.6,1.3-1.6,1.4H174l-1.6.3c-2.2.4-1.9.2-1.9.2a2.9,2.9,0,0,0-1.6.3l-1.2.9a3.2,3.2,0,0,1-1.2.8c-.4.2-1.3.2-1.4.4a4.1,4.1,0,0,0-.5.9l-1.2,1s-.2.6-.7.7l-1.5.6s-.8.4-.9.7l-.5.9a2,2,0,0,1-.8.8l-.7.3a2.7,2.7,0,0,0-1,.4c-.4.2-.6.3-.6.4s.3.5,0,.7a3.3,3.3,0,0,1-2.5,1.9c-2.1.4-1.1.6-3.1.4s-2.4-.2-2.9,0a3.6,3.6,0,0,1-1.1.4,3.5,3.5,0,0,0-1.2-.2l-2.2.2h-1a1.6,1.6,0,0,1-1-.2,6.2,6.2,0,0,1-1.4-.6c-1-.5.4,0-1.6-.7s-1.8-.7-2.4-.7h-1.2a4.3,4.3,0,0,1-1.2.2s-.1-1.1-.8-.2a3.3,3.3,0,0,0-.8,1.3s-1.2.4-1.2.7a13.3,13.3,0,0,0,0,2,8.5,8.5,0,0,0,0,1.6c-.1.6.6.8,0,1.3s0,1.5-.7,1.7-1.4,1-2.9.8a26.7,26.7,0,0,1-4.5-.8l-3.5-1.1c-.8-.2-.9-.9-2.1-1s-1-.3-1.7,0a5,5,0,0,0-1.5.8c-.5.3-.8.4-1,.8s0,.5-.6.7a3.5,3.5,0,0,0-1.5.7,1.3,1.3,0,0,1,0,.9c-.1.4-.2.8-.4.8a4,4,0,0,1-1.1,0,2.7,2.7,0,0,1-.7.8,5.3,5.3,0,0,1-1.4,1.1c-.7.4-.3.1-1.3.4s-.8,0-1.2.6a9.1,9.1,0,0,1-.6,1.1c-.2.4,0,.6-.6.8s-1-.1-1.2.1-.2.5-.9,1.1-.7.9-1.2,1.1-.8-.2-1.1.2-.8.5-.2.8,1.1.5.7,1.5-1,1-1.1,1.4,0,.9-.6,1.1-1.2.3-1.2.7-.4.8.2.9.7-.1,1.1-.4.6-.5.8-.4.3.3.3.6.1,1-.1,1.2a1.8,1.8,0,0,1-.8.5c-.2,0-.8-.2-.8-.1s-1,.4-.8.9.5.5.1.9-1.2.4-1.7,1-.6.9-.1,1.2.4-.1.9-.6.5-.7,1.1-1,.8-1.3,1.3-1.3.8.1.8.8.7,1,.1,1.2-.9.2-1,.3-.2.4-.5.7-1-.3-.3,1,.2.8.6.8,1,0,1.1.2.1.8-.2.9h-.9s-.5.5-.5.9.5.4,0,.7-.6.1-.7.7-.5.6-.2,1,.4.4.2.9.2.7-.5,1.5-1.1.5-1.4.9-.2.5,0,.8.4-.1.8,0,.6.3.8,1-.2.7.5,1A1.3,1.3,0,0,1,98,73c-.2.8-.3.5-.6,1.4s.1.6-.6,1.4a2.2,2.2,0,0,1-1.2.9c-.6.3-.6,0-.9,0a1.1,1.1,0,0,0-.9.3c-.3.3-.1.7-1,.5s-1.7,0-1.3-.4.2-.2.7-.4.9-.5.4-.5a5.6,5.6,0,0,0-1.3,0c-.4,0-.3.2-.4.3s-.3.1-.7,0a1.7,1.7,0,0,0-1.2.2c-.4.1-.3,0-.6.5s.1.7-.5.7-.4.1-.9.1-.2-.2-.7.1-.6.1-1,.6-.4.3-.6.9.4.5-.3.9-.8.2-1.2.5-.2.1-.4.5.1.5,0,1.3,0,.7-.2,1.1-.5.4-.8.9-.7.2-.9.6-.1.3-.4.9a3.6,3.6,0,0,0-.4.9c-.1.6.3.6-.3.8l-1.2.3c-.2,0-.5.1-.8.6s.2.5-.4.8l-1,.5c-.6.3-.5.4-1,.9A5.8,5.8,0,0,1,74,92.3c-.9.5-.1,0-1.4,1s-.6.7-1.8,1.2a17,17,0,0,0-1.6,1.1c-.4.3-.8.2-1.4.2a15.9,15.9,0,0,0-2.6.4c-.3.1-.3.1-.3.6s.3.5-.3.7-.8.2-1,.6-.6.5-.1.8.6.3.8,0,.2-.6.6-.3a.9.9,0,0,1,.4.5.8.8,0,0,0,.8.3.8.8,0,0,1,.5.2s-.1.3.4,1.1.5.2.9.9.5.3.4,1.1-.3.8-.5,1.5-.6.6,0,1.4.4.8.4,1.3a8.7,8.7,0,0,0,.1,2.3c.1.5.3.3.4.8s.2.5,0,.9a1.3,1.3,0,0,0-.4,1.3c.2.9.1,1.3-.3,1.6s0,.7-.6.9a6.9,6.9,0,0,1-2.1.1c-.9-.1-1.3.1-1.4-.7a4.3,4.3,0,0,1,0-1.6c0-.7-.1-.8.1-1s.3-.4.6-.3.1.8.6.3l.7-.7c.3-.4.4-.4.3-1s.3-1-.4-1h-1a.6.6,0,0,0-.5.3c-.3.4-.2.6-.4.7s-.1.4-.5.2-.7,0-.5-.4.1-.4.4-.7.5-.2.5-.5l-.2-.8s-.1-.5-.3-.6-.7.1-.3-.3.5-.8.4-1,0-.5-.5-.5l-.7.2c-.3.2,0,.5-.6.2a2.8,2.8,0,0,1-1.5-1.8c-.3-1,.2-1.1-.7-1.6s-.9-.4-1.5-.9.2-.6-.8-.8-1.1-.2-1.3-.8-.3-.5-.4-.8-.6-.4-.9-.9.1-.1-.6-.8-.3-.9-.9-.9-.7,0-.8.6a1.9,1.9,0,0,1-.5,1.2c-.4.4-.7.4-.8.7a1.7,1.7,0,0,0,0,1c0,.2,0,.7.4.9a8.1,8.1,0,0,1,1,.9c.4.5.7.5,1,1.1a3.8,3.8,0,0,1,.1,1.5,1.5,1.5,0,0,0,.4,1.1,9.2,9.2,0,0,1,1.6,1.9,6.2,6.2,0,0,1,1,1.9s-.5-.2-.1.8a7.6,7.6,0,0,1,.8,1.5c.2.6,0,.6,0,1.4a6.8,6.8,0,0,1-.2,1.4c0,.6.3.5-.3.9s-.4.6-1.1.7a3.9,3.9,0,0,1-1.2,0l-.5.6-.9,1.3c-.5.9-.3,1-1,1.7a19.3,19.3,0,0,0-1.7,2c-.8,1-.7.7-.8,1.5s.1,1.1-.6,1.2-1.1.3-1.7,0-.4-.1-.6-.9a4,4,0,0,0-.9-1.6c-.4-.4-.2-.7-.8-.8s-.7-.3-1.2-.1-.8.3-.7.9,0,.9.3,1.3.7.1.7.9-.1,1-.2,1.1h0l-.2.3c-.4.5-.2.3-1.1.6s-.8-.2-1.1.5-.1.5-.3,1.2-.4.8-.5,1.3.1,1-.4,1.5-.9.6-.6,1.1.7.4,1.1,1,0,.6.5.9l2.4,1.9a12.6,12.6,0,0,1,1.6,1.5,1.3,1.3,0,0,1,.6,1.3c0,.6-.3.4-.8.7s-.4.4-.4.9-.5,1.4-.1,1.8.5.8.6.2,0-1.1.3-1.1,1.5,1.1,2.1,1.8a1.9,1.9,0,0,1,.7,2c-.1.9-.3,1.1.2,1.3s.6.6.9.4.2-.3.1-.5-.3-.6,0-.9,0-.5.8-.3.9,0,1.3.4a1.9,1.9,0,0,1,.3.9s-.5.3,0,.6a5.7,5.7,0,0,1,1.5,1.6c.3.5.2.4,0,1s-.3.2-.4,1-.2.6-.1,1.2.2.8.1.9-.7.1-.7.3-.3.5,0,.7.5-.4.5.3-.1.9,0,1.4.1.7-.1,1-.6.5-.8.3a1.3,1.3,0,0,1-.4-.6c-.2-.3,0-.4-.4-.4s-.7-.5-.7,0,.2.7,0,1-.2.6-.3.7a2.1,2.1,0,0,0,.3,1.2l.8,1c.6.7,0,.9.7,1h1.1c.3.1.5-.2.5.3s.1.9,0,1.6.2.9.3,1.6.2.5.2,1.1,0,0,.7.9,1,.7,1.1,1.5.2,1-.2,1.6-.8.3-1.1.9.2.4-.2,1.1-.6,1.2-1.3,1.4-.8-.5-1.5-.1-.5.6-1.3.7-1-.1-1.2.3-.4.2-.2.7.3.9.2,1-.2.2.1.4.4.6.8.3.3-.6.6-.5a1.8,1.8,0,0,1,.5.6s-.5.1-.1.3.7.1.8.2.6.8.1,1-.7,0-.6.4.2.9.2,1.1,0,.3.3.5.5,0,.8.4.5.6.4.8-.5.3-.5.3-.1-.6-.4-.3-.2.7-.2,1.4-.5.9,0,1,.5-.1.8,0,.3.5.5.1.4-.4.6-.3H54a.4.4,0,0,1,0,.5l-.4.3h-.7l-.7.2c-.4.1-.3,0-.4.2a5.5,5.5,0,0,0,.5,2c.3.8.3.7.2,1.3s.1,1.9.1,2.8-.4.8.1,1.3l1,.8c.3.4,0,.6.6.8a2.4,2.4,0,0,1,1.1.8,1.1,1.1,0,0,1,.2.6c-.1.3.2.4-.1.5s-.5.5-.7.1l-.2-.6c0-.2,0-.3-.3-.4s-.9,0-1,.2-.2.3-.1.5l.4.5c0,.2.4.3.2,1s-.3.5-.4,1-.1.5,0,.8.3.4.2.6-.2,0-.3.3-.1.6.1.7.5-.1.3.1a2.2,2.2,0,0,1-.6.7v.3l.2.5c.1.1.6-.2.8.4s.6.7,0,.8-.5.1-.8.2a3.4,3.4,0,0,0-1.5.7c-.3.4-.2.6-.6.9s-.6.1-.7.7.2.8-.2,1-.2.4-.5.2a1.5,1.5,0,0,1-.3-.5s-.3-.5-.5-.2-.4.6-.6.8-.1.1,0,.6a5.3,5.3,0,0,1,.2,1.9c-.1.6-.7.6,0,1.1s.9.5,1.1.9.2.6.4.5.4-.5.7-.3-.1.1-.1.6-.3.7.2.8.5,0,.8.2.2.7.3.9.1.7.4.7.3-.1.5-.4.5-.2.4-.6-.3-.4-.2-.6l.4-.4c.2-.1.2-.1.4-.4s.2-.5.4-.7-.1-.6.5-.5.8,0,1,.3,0,.3.3.5.8.1.6.3-.6.4-.8.5-.2.1-.1.4a3.5,3.5,0,0,0,.1.6c-.1.1.1.3-.3.3s-.9,0-1.1.3-.6.5-.7.8.5.4.7.5.3,0,.4.5-.5.6.3.6h2.3a.8.8,0,0,0,.7-.3c.2-.1.5.1.3-.3s-.4-.4-.3-.7,0-.4.4-.5h.6c.3.1.1-.2.8,0s.9,0,.9.4l.2.6c-.1.2-.6.4-.6.4s-.2-.3-.3,0-.2.5-.2.7-.4,0,0,.7,1.1,1.4.8,1.8.1.5-.7.4-1,.8-1.2,0-.2-.9.1-.9.3-.2.3-.2.2-.3-.2-.6-.6-.5-.9-.3a1,1,0,0,0-.2.7c0,.3,0,.4-.2.6s-.5.3-.5.7-.2,1,0,1.1l1,.3c.4.1.6,0,.6.2a1,1,0,0,1-.6.5h-.8s.7.3-.4.9-1.8.3-2.2,1l-.9,1.4s-.6,0-.7.5a.8.8,0,0,0,.2.9c.1.2.8-.1.4.5a2.9,2.9,0,0,1-.9,1,2.1,2.1,0,0,0-1.2.7c-.4.7-1.1.7-1.4.9a1.8,1.8,0,0,0-.7.5,5.9,5.9,0,0,1-.8.8c-.2.1-.6.6-.2.9H49l.6-.3h.1a1.9,1.9,0,0,1,.4,1.1c0,.2-1.3.5-1.3.5l-1,.4a.8.8,0,0,1-.4.6l-.8.8c-.2.3-.2.4-.9.8a2,2,0,0,0-.9.6A3.6,3.6,0,0,0,44,237h.7l.5-.3h.1l.5.5-.3.7h-.2c-.2,0-.4.1-.4.3s0,.1,0,.2h-.6l-.4.2c-.2.5-.5.5-.2,1s.4.5.4.9a1.2,1.2,0,0,1-.5.8l-.6.2h-.6a.3.3,0,0,0-.3.5c.2.2.8.3.9.5s.6.5.3.7h-.7s-.6-.6-1-.6h-.2a.8.8,0,0,0-.7.3s.7,1.3.6,1.6a1.5,1.5,0,0,1-.4.6,1.1,1.1,0,0,1-.6-.9c0-.5,1.1-1.2.2-1.1H40c-1.5.4-1.5.6-1.6.9a1.4,1.4,0,0,0-.1.9c0,.4.4.9,0,.9l-.4.2a.7.7,0,0,1-.3-.4c-.3-.5.1-.8-.3-.9s-.4-.3-.5-.2-.2,0-.4.3.4,1.4-.2,1.9-.7.8-1.3,1-1.2.1-1.1-.4.2-.7,0-1.3-.3-1-1-.8-.7.4-1.3.5-.9-.4-.8.4.4.5,0,1.2-.7.9-.9.9.1-.6-.5-.6-.7-.1-1,.4a2.1,2.1,0,0,0-.3,1.3s.8.2.3.7-.5.9-.6,0,.4-1.1-.2-1.3-1.2.1-1-.3.6-.7.2-.9l-.8-.2s-.5,1.8-1.5,2.1-1.6-.2-2,.4-.4.6-.3,1.1.5.9-.1,1.2-.6.4-.7.6-.7-.7-.3.8.5.9.8,1.8-.5.5.3,1a1.7,1.7,0,0,1,.8,1.8c0,.5,0,2.2-.7,2.4s-1.3-.6-2-.4-1.4.2-1,.7.3.7.8.8.7-.5,1.1.1.9.8.7,1.3-.8.3-.3.8.3.3,1,.4.8.4.8.7,0,1.8-.7,2.3-.7,1.1-1.3.3-.8-1.1-1.4-.8-.2.7-1,.5l-1.2-.5c-1.2-.6-.3-.7-1.7-.5s-1.3.6-1.9,1.2a21.9,21.9,0,0,1-2.2,2.4c-.9.8-1.2.3-1.2,1.2s-.7,1.1.7,2.1.1.9,1.6.9,1.5-.3,1.6.2.3,1.2.4,1.6.3.5.7.8,1,.2,1.7,1.1.5,1.1,1.4,1.9.8.2,1.4.7,1.7,2,2.4,2.1,1.6-.1,1.8.1.3.9,1.2,1.6,1,.2,1.5,1.2a1.5,1.5,0,0,0,1.7.7c.6,0,1.1-.1,1.3.3s3.2,2.7,4.4,3.6.8,1.6,2.3,1.9l2.5.5a2.8,2.8,0,0,0,1.3-.3l1.3-.7a5.5,5.5,0,0,1,1.8-.2c.4,0,.7-.5,1.3-.1s1.8.1,1.1.7-.5.8-.9,1.2a3.1,3.1,0,0,0-.4,1.2l.9,1a1.7,1.7,0,0,0,1.9,1.5c1.9-.1,2.7-.4,2.8.2s.5.7.1,1.1l-1.1.6s-.5.1-.1.6.7.5.9.9l.4.9s-.4.1-.2.9.5,1.1.7,1.1h1.3l1.3-.5s1,.1,1.2.5.2.5.7.6a3.5,3.5,0,0,0,1.3-.1l1.2-.3c.4-.1.7-.4,1.2-.2l.3.2h.3l.4.4h.1l.2.3a4.7,4.7,0,0,1,2.1.5h.2c.3.2.3.5.9.8s.2.3.4.4.9.1,1.6-.1a2.4,2.4,0,0,1,1.7.2h0c.1.2.2.2.3.2s.3.4.5.2a.7.7,0,0,0,0-1h-.5c0-.1,0-.1.2-.2a4.2,4.2,0,0,1,1.4.1l1.3.4.5.3c.2.3-.2.5.4.7s.1.2.5.3a1.3,1.3,0,0,0,1.6-.6c.4-.4.2-1,.8-.6a4.3,4.3,0,0,0,1.2.6l.5-.5s-.2-1.2-.2-1.5-.5-.9.2-1.5.9-.9,1.2-.8.6.3.9.2a.9.9,0,0,0,.8-.4l.6-.4a.8.8,0,0,0,.5.5,1.3,1.3,0,0,0,.6.4c.7.3.9,0,1.6.1l.8.2a2,2,0,0,0,.5.5l.3.2h0c.4.3.5.2.9.3h.4c0,.2-.3.5.1.5h.2c-.1.1-.1.2.2.2h.5a1.9,1.9,0,0,1,.7,1.4c0,.5-.3.7,0,1.3s.5.9.9,1.1l.4.3c.4.2.8.1,1.2.3a1.1,1.1,0,0,0,.7.2h0c.1.4.3.4.3.7s0,.4.5.6.1.2.4.3a3.1,3.1,0,0,0,2.5.6l2-.4.9-.3a.1.1,0,0,1,.1.1,1.9,1.9,0,0,0,.8,1l.2.2H98a2.9,2.9,0,0,0,1.3.8c.7.3.5-.2,1.5.6a4.5,4.5,0,0,0,1.9.8l1.6.6c.5.3.5.7,1.2.1a6.6,6.6,0,0,0,1-1.1c.3-.3.3-.6.9-.3l.7.2a.4.4,0,0,0,.3.4c.1.1.2.2.7.3h.8l.3.3.4.2c0,.1.1.1.1.2a3.5,3.5,0,0,0,.7.9h.2c0,.1.1.1.1.2s.4,0,.6.1l.2.3a2.3,2.3,0,0,0,.5.5c.4.5.8.2,1.1.3s.4.6.7.7.3.4.7.2.7-1.2,1.2-1.3h.4l.5.5c.7.5.6,1.1.6,1.7s-.3.7.3,1.3l.8.7a1,1,0,0,0,.8.4h.7c.2-.1.3-.3.5-.2l.7.8.5.6a1.5,1.5,0,0,0,.5,1.1c.1.1.2.1.2.2h.1c.6.4.4.1,1.2.5l.9.3.2.2a4.4,4.4,0,0,0,.8,1c.1.1.2.1.2.2h.1c.3.4.7.3.6.7a1.4,1.4,0,0,0,0,.9l.5.5c0,.1-.3.2-.2.5a3.6,3.6,0,0,0,.9.9l-.4.4-.6.3s-.2.2,0,.6a2.3,2.3,0,0,0,.6.7,1.5,1.5,0,0,1,1.2.9c.3.8.2.9.7.9s1.1-.2.8.2,0,.8-.6.8-.6-.6-1-.3a1.7,1.7,0,0,0-.3.9l.7.7c.4.4.7.6.7.9a9.2,9.2,0,0,1,.3.9c-.1.2-.2.6.4.6s.5-.3,1.4,0,1.1.2,1.4.5.7.7,1,.7.5-.1.6-.5-.4-.8.1-.9.7-.3.8.1a1.9,1.9,0,0,1,0,1.1,5.4,5.4,0,0,0-.1.8c0,.2.2-.4,1.1,0s-.2.7.6.8,1-.3,1.2-.2.6-.2.7.4a9.7,9.7,0,0,0,.2,1.2c0,.4-1.2.4.3,1.1s1.7.9,1.9.7.3-.9.3-.9a.7.7,0,0,1,.9-.1c.6.4.7.4.8.6s.2.6,1.1.5a1.4,1.4,0,0,1,1.6,1.1c.3.8-.5.7.2,1.3s1,.4,1.1.9a5.5,5.5,0,0,0,.2,1.2l.4.6.8.6s.3,0,.4.6a11.3,11.3,0,0,0,.2,1.4c0,.3.2.5-.1.9s-.4,0-.7.6a11.2,11.2,0,0,0-.5,1.3c-.1.4-.9.5-.2,1.2s1,.1,1.8,1.1.8,1.2,1.6,1a2,2,0,0,1,1.3-.1c.5.2,1,.4,1.4.1s.2-.4.7-.5.8.4.8-.2.1-.8.4-.6.9.1.9.5-.4.6-.1,1,.7.3.7.7a7.7,7.7,0,0,0,.1,1s1.6-.8,1.4.7a3,3,0,0,1-.4,1.7c-.3.7-.6.3-.2.9l.9,1.2s.7.5.6.9a1.5,1.5,0,0,1-.3.7s-1.2-.1-1.2.2a3.5,3.5,0,0,0,.1.7.8.8,0,0,1-.2.7c-.3.3-.9.2-1.1.3s-.2,0-.2.2-.1.6.7,1.5.4.5.8,1.1.5.8.8.9,0,.8.7.2a1.5,1.5,0,0,1,1.8-.2c.4.1.4-.1.6.1s.7.8.7.8-.4.7-.1.9.7.3.7.6-.5.6.1.7a4.4,4.4,0,0,0,1.6-.6l1.1-.7s-.2-1.1.5-.5,1,.4,1,.4.4-.7.5-.7.6,0,.7.2a3.5,3.5,0,0,0,.1.7s-.5.6.1.5.8-.2.8-.5.1,0,.2-.7.1-.8.1-.8l.6-.3,1.5,1.1c.7.5,1,.6,1.7.2a3.2,3.2,0,0,1,1.3-.4,2,2,0,0,1,.9.4c.3.2-.8-.2.6.6s1.5.8,2,.6a3.1,3.1,0,0,1,1.2-.4,3.1,3.1,0,0,0,1.1-.2,1.1,1.1,0,0,0,.4-.6s0-.5.4-.1-.3,1.1.4.8,1,.1,1-.7a2.6,2.6,0,0,1,1.4-2.2c.7-.3.6-.2,1,0s.7.7,1.3.5.9-.1,1-.9.4-.9.9-.9,1.1.6,1.2-.5-.2-1.3.2-1.8.2-.3.9-.7.7-.2,1.1-.8.6-.7.8-.7-.2.3.1.8-.6.8,0,1.3.3.7.8.5.2-.6.8-.8.5-.5.8-.1.3,0,.5.5.3.6.8.6.9-.3,1.4.3.3.8.4,1.8.4,1.1.7,1a.9.9,0,0,0,.5-1.1c-.1-.6-.5-.9.2-1s.8.2,1,.7a2.7,2.7,0,0,1,.5,1.4c-.1.4-.6.6,0,1s.6.8,1.1.4a3.6,3.6,0,0,0,1.1-1c.3-.4.1-.7.7-.6l1,.3c.3.1-.1.2.9.3s1.5.3,1.6-.4-.1-.7.4-1.4.7-1.1,1.4-.8.4.5.9.6.8-.1.8-.3a8.1,8.1,0,0,0-.2-.9c0-.5-.6-.9.1-1.1s1.1-.2,1.2.2-.1.9.4,1a1.3,1.3,0,0,0,1-.4s-.1-.6.6-.1.8.4.9.8,0,.4.3.6a7,7,0,0,0,1.2.3c.2.1-.1-.3.4.2a4.5,4.5,0,0,0,.9.6c.9.6.7.3,1.4.7s.1.7.4,1,.4,0,.7,1.2.7,1.5,1,1.4a1.2,1.2,0,0,0,.5-.5c0-.2-.1-.6-.1-1.1s-.1-.7.3-.7.8.1.8.5-.2.9.4,1,.7-.2,1.1-.1.5.2.5.6-.2.4.2.7.8-.2,1.1-.2.2-.4.8-.4,1-.3,1.2,0a1.7,1.7,0,0,1-.1.9,4.1,4.1,0,0,0-1.2.4c-.1.2-.5.5-.2.8a1.9,1.9,0,0,0,1.1.5l.7-.8c.3-.3.1-.5.5-.5s.8-.3.8,0,.1.8.2,1.5a1.1,1.1,0,0,0,.7.8s.9,0,1.1.3-.6.8.3,1.1,1,.2,1.1-.2-.2-.7.5-.7.7.7.7,1.9-1.2,2.4-1.9,3.6l-14.4,22.7,1,.4c1,.4.3,1.3,1.1,1.2s.6-.6,1.4-.5,1,.2,1.1.5,0,.8.7.7.9.3,1.2-.1l.8-1.1a1.3,1.3,0,0,1,.7-.8l1.6-.4c.4,0,.4-.3,1.3.2s1,.2,1.4.9.8.9.9,1.4a2.4,2.4,0,0,0,.9,1.6c.6.6,1.1,1.1,1.1,1.5a1.8,1.8,0,0,0,.3,1.1,2.5,2.5,0,0,1,1.1.7,6.9,6.9,0,0,1,1.5,1.4,4.9,4.9,0,0,1,.4,1c.1.2-.1.5.3.4s1.3-5.2,1.3-5.2l11.8-64.4s1.1-1.2,1.1-1.6,0,.1-.5-1.2-.9-.6-.6-2a9.4,9.4,0,0,1,.6-2l.2-1-.4-.8s-.1-.1-.1-.6a2.4,2.4,0,0,0-.3-.8s-2-.8-2.1-1.7.2-1.2-.3-1.9a3.4,3.4,0,0,0-1.4-1.5c-.6-.4-1-.7-1.1-1.4a5,5,0,0,1,.3-1.4l.9-.7v-1.4l-1.4-.8c0-.1.4-1,.4-1.1s.9-.1,0-.7l-1.6-1-1.4-1.1c-.4-.3-.2-.4-1.1-.6s-.8-.4-1.3-.7a2.6,2.6,0,0,0-1-.5h-1l-.6-.8a1.6,1.6,0,0,0-.6-1.2c-.6-.3-.8-.1-1.2-.6a2.4,2.4,0,0,1-.4-1.2c.1-.4.3-.6,0-.8l-.6-.4c-.1-.1,0-16.4,0-16.4a6.9,6.9,0,0,0,1.3-.5c.1-.1.1-.5.4-.6h.8c.3.1.7-.3.7-.3s0-.3.5-.3h1.5c.5,0,.8.3,1.4.1s.3.1.7-.4a2.2,2.2,0,0,0,.6-1.4c0-.4-.2-.7.3-.8s1.1,0,1.2.3,0,.7.6,1,.5.5,1,.1a2.9,2.9,0,0,0,.7-1.2c.2-.5,0-.7.4-1s.9-.6,1.3-.6.2-.2.7.1l1.3.9c.8.7,1.1.4,1.1.9s-.3.7,0,1.2.6.9.8.7a4.9,4.9,0,0,0,.4-1s-.2-.6.3-.6.5-.4.7.1.3.2.2.7.2.9.4.9a2.8,2.8,0,0,0,1.3-.7c.2-.3-.1-.6.4-.9s.5-.6.8-.3.3.6.5.6.3-.1.5-.3.1-.4-.2-.8l-.9-1c-.3-.3-.7-.7-.4-.9a.5.5,0,0,1,.5-.1h.2l-.5-1.2c0-.1-.3-1,.2-1.1s.8,0,.8-.4,0,.1-.8-.6-1.2-.7-.6-.9,1-.3.8-.6-.5-.2-.8-.4a1,1,0,0,1-.5-.6s0-1.3-.6-1.5-.6.4-1.2-.1-.3-.8-.8-.8-.7-.4-1.1.1-.1.7-.7.9-.8.4-1.1,0-.1-.7-.6-.8h-1l-.8.3c-.3.2-.1.5-.9.2s-.3-.4-.8-.7a2.3,2.3,0,0,0-1.1-.2c-.4.1,0,.2-.7.2s-.7,0-1-.2-.2-.5-.6-.3l-.7.5c-.3.3-.3.6-.7.7l-.9-.2-.2-.5V269.6l1.7-.4c.2,0,.7-.4.7-.4a4,4,0,0,1,1.1,0l.7.2a1.4,1.4,0,0,0,1.1-.3c.5-.5.9-1.2,1.3-1.3s1-.2,1.2.1,0,.6.6.7.7-.5,1.3-.3a4.3,4.3,0,0,1,1.3.9,2,2,0,0,0,.9.5h29.6l.3-.5a1.4,1.4,0,0,1-.4-.4c-.1-.1,0-.7-.2-.7h-.7s-.2.5-.4.5l-.7-.3a1.7,1.7,0,0,1,.2-.5c.2-.1.3,0,.3-.3s.1-.5-.2-.5h-.7c-.1,0-.2.1-.2-.3s-.4-.6,0-.7l.9-.4.2-.4s-.1-.7-.1-.9.3-.7.6-.8a1.6,1.6,0,0,1,.9-.3c.2,0,.7-.1.8.2s0,.3.3.5l.8.2s.5-.1.6.1.7.4.9,1a9.3,9.3,0,0,1,.4,1.3c.2.3.2.4,1,.8l1.5.8c.3.3.5.3.6.5a1.3,1.3,0,0,0,1,.2l.4-.3-.3-2.1s.1-1.1.3-1.2a6.7,6.7,0,0,1,1.5-.6h1.2l.7-.6,1.1-.4a4.6,4.6,0,0,0,1-.5l.9-.7.9-1.1a4.7,4.7,0,0,1,1-1.1,9.1,9.1,0,0,0,1.2-1.7l1.3-.3a3.7,3.7,0,0,1,1.1.4l.9.6c.1.2.3.1.3,1a6.4,6.4,0,0,1,0,1.4l-.4,1.7s.2.9.5,1.1a3.9,3.9,0,0,1,.5,1.4,5.5,5.5,0,0,0,.1.9l1,.8,1.6.8c.4.3.7.2.9.8l.2,1.1s1,3.4,1,3.5a14.1,14.1,0,0,1,1,1.8,8.7,8.7,0,0,1,.5,1.6l-.5,1.6a14.9,14.9,0,0,0-.4,1.8,3.7,3.7,0,0,0,.2,1.2,4.3,4.3,0,0,0,.4,1.4,3.1,3.1,0,0,0,.5.9l5-1.6v-.4s-.5-.1-.6-.3" style="fill: #a3def4"/>
      <path onclick="show('magdalena')" onmouseover="addClassBlue('magdalena')" onmouseout="removeClassBlue('magdalena')" class="hoverable magdalena" d="M117.7,37.7c.1.2.4.1.5.7s-.1.7,0,1a2.1,2.1,0,0,1,0,1.1,2.1,2.1,0,0,0-.1,1.2,4.9,4.9,0,0,0,.2,1.4v1.2a3.9,3.9,0,0,0,0,1.2v1.6a4.1,4.1,0,0,1-.2.7l-.6.8-.6.6a3.3,3.3,0,0,0-.7,1.3v1.2l-2.4,3.9c0,.2.1.3,0,.4a8.5,8.5,0,0,1-1,1.4l.2,1a2.5,2.5,0,0,0,.2.7l.8.5a8.6,8.6,0,0,0,1.4.7s.8.5.8.8.3.4.2.7a2.5,2.5,0,0,1-.8,1.4,1.7,1.7,0,0,0-.6.9l.4,1.5c.1.3.4.3.6.8s.5.1.4.7a9.4,9.4,0,0,0-.1,1.2,3.9,3.9,0,0,0,.2,1.1l.2,1.2.3,1.5-.2,1.2.3.9a2.5,2.5,0,0,0,.4,1,16.9,16.9,0,0,0,2.8,1.9l2.1,1.5L123,80c.3.4.3.7.7,1a2,2,0,0,0,.9.5s.2-.7.6-.7l1.1.2.8.8.8.2c.3,0,.3-.5,1,.2s1.7,1.7,1.7,1.7a1.8,1.8,0,0,1,.7.6c.5.6,1.1.7,1.4,1.3s-.2,1.2.9,1.1a5.3,5.3,0,0,1,2-.2c.7,0,1.1-.1,1.5.3a3,3,0,0,0,1.1.7c.2.1.5-.1.9.1s.4.2.5.6l1.2-1.6a3,3,0,0,0,.3-.9,1.5,1.5,0,0,0-.3-.7,3.7,3.7,0,0,1-.6-.8l-.3-1-.5-.9c-.2-.4-.4-.1-.9-.3s-.6-.4-.9-.8,0-.4.1-.9a2.4,2.4,0,0,0-.1-1.2c0-.3-.2-.4-.5-.9s-.4-.5-.7-1.1a2.4,2.4,0,0,0-.8-.9l-1.4-.8-.9-.8.4-.8,1.8-1.7h.9l1.3.5h1.4l1.2-.4c.4-.1.9.4.9.4l.5-.4c.3-.3,0-.6,0-.9s-.5-.6-.7-1-.4-.6-.7-1.3a6.9,6.9,0,0,1-.2-1.6l-.7-.8-.5-1.1a6.3,6.3,0,0,0-1-1.2c-.1-.2-1.5-.8-1.7-1.3a4.4,4.4,0,0,0-1.1-1.2,6.2,6.2,0,0,1-.4-1.6l.2-1.9.7-1.4c.3-.4.9-1,1.3-1.6s.3-.8.3-1.5,1.2-1,1.2-1a3.5,3.5,0,0,1,1.4-.7,2.6,2.6,0,0,0,1.2-.1c.5-.1.5-.4,1.1-.7s1.2-.3,1.8-.6a1.7,1.7,0,0,0,.8-.9l.8-1.2.7-.4a18.3,18.3,0,0,0-.2-2.1v-.6l.6-1.3.5-1-.6-.4a1.1,1.1,0,0,0-.9.1,3.1,3.1,0,0,1-.6-.6c-.1-.3.4-.6.6-.8s.9-.1.9-.2,0-.2-.8-1.4-.6-.5-.7-.9a11.4,11.4,0,0,1-.6-1.5,2.2,2.2,0,0,1,.6-1c.3-.4,0-1.2,0-1.7V33.7l1.1-1.3.7-1.7-1.2-.2-2.3.2h-.9a1.6,1.6,0,0,1-1-.2,6.2,6.2,0,0,1-1.4-.6c-1-.5.4,0-1.6-.7s-1.8-.7-2.5-.7a4.8,4.8,0,0,0-1.2,0,3.4,3.4,0,0,1-1.1.2s-.2-1.1-.9-.2a2.3,2.3,0,0,0-.7,1.3s-1.2.4-1.3.7a13.3,13.3,0,0,1,0,2,8.5,8.5,0,0,1,0,1.6c0,.6.7.8,0,1.3s.1,1.5-.6,1.7-1.4,1-2.9.8a26.7,26.7,0,0,1-4.5-.8L119.2,36c-.9-.2-1-.9-2.1-1a2,2,0,0,1-1.1-.2l.7,1.8,1,1.1"/>
      <path onclick="show('cesar')" onmouseover="addClassBlue('cesar')" onmouseout="removeClassBlue('cesar')" class="hoverable cesar" d="M162.3,52.6a3,3,0,0,1-.8-.7,3,3,0,0,0-1.6-.8c-1.2-.2-.6.4-1.6.7s-1.2-.6-1.2-.6l-.3-1.1.4-.6,1.1-.8c.4-.2.5-.6.8-1.1s.1-.9,0-1.4-.3-.2-.8-.4-.7.1-1.1-.1-.2-.5-.3-.8-.4-.7-.8-1.2-.4-.1-.6-.1-.5.5-.5.5l-.4.3s-.4-.3-.4-.5,0-.3.1-.7a5.3,5.3,0,0,1,.6-1c.2-.4,0-.5-.1-.8a1.5,1.5,0,0,0-.5-.8c-.4-.3-.5.1-.9,0a10.1,10.1,0,0,0-1.8,0,7.1,7.1,0,0,0-1.5,0,6,6,0,0,0-1.6.5l-1.9.3v.2c0,.1-.7-.1-.9.2s-.7.5-.5.8.1.2.2.3a2.6,2.6,0,0,1,.9,0l.5.3.5.3-.6,1-.6,1.3a1.8,1.8,0,0,0,.1.6c0,.2.1,2.1.1,2.1l-.7.4-.7,1.2a2.2,2.2,0,0,1-.9.9c-.6.3-1.2.3-1.8.6s-.6.6-1.1.7a2.7,2.7,0,0,1-1.2.2,4.8,4.8,0,0,0-1.4.6s-1.1.4-1.1,1,.1.9-.3,1.5a17.7,17.7,0,0,0-1.4,1.7,9.2,9.2,0,0,0-.7,1.3l-.2,1.9a7.1,7.1,0,0,0,.5,1.6c.1.3.8.7,1,1.2a2.2,2.2,0,0,0,.7.6c.3.2.7.4.7.5h0l.4.2a6.2,6.2,0,0,1,.9,1.2l.5,1.1.7.9a5.8,5.8,0,0,0,.2,1.5,13.1,13.1,0,0,0,.7,1.3c.3.4.7.7.7,1s.3.6.1.9l-.6.4-.3-.2h0l-.2-.2h-.4l-1.2.4h-1.4l-1.2-.5h-1l-1.8,1.7-.3.8.8.8,1.1.6h0l.3.2a2.4,2.4,0,0,1,.8.9c.3.6.5.6.7,1.1s.5.6.6.9a4.8,4.8,0,0,1,0,1.2c-.1.5-.4.5-.1.9l.5.6h.1c.4.1.7,0,.9.3a.4.4,0,0,1,.4.2l.4.9a9.4,9.4,0,0,0,.4,1,2.1,2.1,0,0,0,.5.8,1.5,1.5,0,0,1,.3.7,3,3,0,0,1-.3.9l-1.2,1.6h0c.1.4.2-.7.3.7s.2,1.5.5,1.8l.9,1.3a13,13,0,0,1,.5,1.4l-.3,1.1a3.6,3.6,0,0,0,0,1.1c.1.5.3.4.4,1.1s.5.8.7,1.5l.4,1.3s-.7,2.3-.5,2.6.5.4.5,1.1.3,1,.1,1.6a12.4,12.4,0,0,0-.1,1.5l-.3,1.1a12.4,12.4,0,0,1-.7,1.9l.4.2a7.4,7.4,0,0,1,.6,1.4,12.7,12.7,0,0,0,.7,1.2c.3.5.6.7.7,1.1s.4.5.1,1l-.7,1.3a3.6,3.6,0,0,0-.6,1,3,3,0,0,0-.2,1,1.7,1.7,0,0,0,.5,1l.6.3c.4,0,.3-.5,1.2,0l1.3-.8a12,12,0,0,1,2,.6c.5.4,1,.9,1.4.8a2,2,0,0,0,1.4-.8,4,4,0,0,0,.7-1.2,8.2,8.2,0,0,1,.1-1c.1-.8-.2-1.2.2-1.8s.1-.8.7-.8.8.1,1.1-.1a.8.8,0,0,0,.3-1.2c-.2-.4,1.4,0-.5-.9s-2.3-1.4-2.3-1.4l-.5-1.2v-3l1.6-1.9a14.4,14.4,0,0,0-.1-1.8,6.1,6.1,0,0,0-.3-1.5l-1.2-.3a.8.8,0,0,0-.3.7c0,.4.2.8,0,1.1l-.2.8s-.8.6-1,.5-.5-.1-.7-.7-.5-1-.3-1.5.3-.9.4-1.2.2-.4.2-.6l-.5-.4-.8-.4-.5-.9a6,6,0,0,1,.1-1.8l.7-1.1a4.4,4.4,0,0,0,1.1-1.1l.6-.9v-.6l.8-.6V87.6s-.4,0-.5-.9-.5-1.5-.2-1.9a2.9,2.9,0,0,0,.4-1.1l2-.5,1.9-5.4,3.4-4,1.2-1.4,1.9-4.5.8-.8.6-.7-.2-.7a6.2,6.2,0,0,0-.9-1.2l.5-2.8L163,60V55.7l2-3.2h.1l-1.9.3c-.2.2-.5,0-.9-.1"/>
      <path onclick="show('cauca')" onmouseover="addClassBlue('cauca')" onmouseout="removeClassBlue('cauca')" class="hoverable cauca" d="M36.7,246.1l2.1,2.2,1.8,2.2,2.2,2.9.5,2.1s.6,1.1,1.2,1.2a6.5,6.5,0,0,1,1.9.4c.7.2.8.7,1.3.7a6.8,6.8,0,0,0,1.9-.8,5.3,5.3,0,0,1,1.8-.4c.4,0,1.5.2,1.6.5a9.3,9.3,0,0,1,.7,2,5.2,5.2,0,0,0,.3,1.8c.1.3,1.6,1,1.6,1l1.7.8a4.2,4.2,0,0,0,0,1.6c.2.3,0,1.1,0,1.1l-1.4.8s-1.8,0-1.9.4a4.1,4.1,0,0,0-.3,1.6c0,.5-.4,1.4-.2,1.7a11.2,11.2,0,0,0,2.2.5l2.7-.2a13.6,13.6,0,0,0,1.8.1l1.3-.8c.2-.2.2-1,.7-.8s1.7.9,1.7,1.2l.6,1.5s1.8-.4,1.9,0,.4,1.2.4,1.4a2.4,2.4,0,0,1-.4,1.3,7.6,7.6,0,0,0-.9.9,2,2,0,0,0-.4.9.5.5,0,0,1,.6.5,23.5,23.5,0,0,0,.7,2.3l-.2.9h.9l1.4-.3s-.2-1.7,0-1.9l1.3-1,1.4.8,2.1,1.9v5.8s.3.6.4.5,1.2.9,1.2.9l1.3.5,2.7.6c1.1.2.8,0,1.8-.1s.6-.5.8-.6l1.8.2,1.5-.4c.8-.3.3-.5.4-.8L83,284.2a5.5,5.5,0,0,1-.2-1.2c0-.4-.8-1.1-.8-1.1L80.9,283a9.6,9.6,0,0,1-.3-1.5,8.5,8.5,0,0,0-1.1-1.6,3.1,3.1,0,0,1,.7-1.2,22.1,22.1,0,0,0,1.8-3.2l2.2-1.5-1.3-.4a3.9,3.9,0,0,0-1.2,0h-.8a2.8,2.8,0,0,1-.6-1,2.4,2.4,0,0,0-.7-1H76.9c-.8,0-.6-.2-.9-.4s-.1-.8-.1-1.2.1-1.2.1-1.7a11.3,11.3,0,0,0-.2-1.4l-.9-1.4H73.8l-1.1-.4-.5-1.1.2-1.5-.2-1.7-.3-1.3,1-.7,2.1.3,2.5.4a2.8,2.8,0,0,0,1.3-1c.5-.8-.3-1.7-.3-1.7l-.8-2.4h1l1-.9c.4-.5.1-.9.4-1.5a.9.9,0,0,1,1-.4l2,.7,1.8-.4c.5-.1,1.2-1,1.4-1.2l.9-.9,1.6.6,1.8,1.5,1.5-.9a12.3,12.3,0,0,0-.5-2.1,21,21,0,0,0-2-2.7,15.7,15.7,0,0,1-1.2-2.6c0-.2.5-1.9.5-1.9l-.8-2.9a4.6,4.6,0,0,0-.7-1c-.2,0-1.2-1.2-1.2-1.2l-1.1-1.8.3-2.8-1.8-.4-2.2-1-2.3-.3a11.8,11.8,0,0,1-2.3-.8l-1.5-.2V231c0,.2-.8,1.9-.9,2.3s-.9,1.1-.9,1.1a7.1,7.1,0,0,1-1.5.7l-2.4-.2a3.2,3.2,0,0,0-1.6.8l-1.8.8H64.4a7.9,7.9,0,0,1-1.6-1.2c-.6-.7-2.4,0-2.4,0H58.5l-1.5-.4-1.3-1.3-1.7-.4c-.3-.1-1.1-1.1-1.1-1.1l-.7-2.5-1.6-1-.6.5-.9.9c-.2.1-.6.6-.2.9s.7-.4,1-.2a1.4,1.4,0,0,1,.4,1c0,.3-1.3.5-1.3.5l-1,.4a.9.9,0,0,1-.4.7l-.7.8c-.3.2-.3.4-.9.7a2,2,0,0,0-1,.7,4.4,4.4,0,0,0-.8,1.5h.5s.5-.5.8-.3l.5.5-.3.7s-.6-.1-.5.3-.9-.2-1.1.3-.5.4-.2.9.4.6.4,1a1.2,1.2,0,0,1-.5.8,1.9,1.9,0,0,1-1.2.2c-.2,0-.4.2-.2.5s.7.3.9.5.5.5.2.7h-.9s-.6-.6-1-.6a.8.8,0,0,0-.6.3s.6,1.3.5,1.6a2.5,2.5,0,0,1-.5.7s-.7-.4-.7-1,1.3-1.4-.1-1-1.4.5-1.6.8a3.1,3.1,0,0,0-.1,1c0,.4.4.8,0,.9s-.7.4-.9-.2.1-.8-.3-.9-.5-.4-.6,0Z"/>
      <path onclick="show('putumayo')" onmouseover="addClassBlue('putumayo')" onmouseout="removeClassBlue('putumayo')" class="hoverable putumayo" d="M140.4,322.1l-2.7-1.4s-1.4,0-1.5-.3a13.1,13.1,0,0,0-.7-1.9s-1.2.2-1.4,0a6,6,0,0,0-1.5-.9,8.1,8.1,0,0,1-1.1.3c-.3,0-1.1-1.1-1.1-1.1h-.9v-1.7l-2-1.1-.5.6s-1,.4-1.2.2l-.6-.8-1.1.4-1.3.3h-1.9v-1.1a1.4,1.4,0,0,1-.7-.8l-.5-1.3.5-1.2-.5-2-1-1.8-2.9-.6h-1.7l-1.6-.7h-.8l-.3-4.9-1.2-.6-1.7-.3-.8-.3-1.1.3-.8-2.1.2-1.4-1.4-1.1-.2-2-3.3-.6a13.1,13.1,0,0,1-2.8,0c-.5-.3-.9-1-1.1-1.1a9,9,0,0,0-1.4-.7,5.3,5.3,0,0,0-2.1-.6c-.7.2-1.1.7-1.4.6l-2.1-1.2-.8-1.1-.9-.6v-1.7s-.3-.6-.8-.6h-2c-.3,0-.7-.1-.9.2s.4.5-.5.8l-1.5.4a8.2,8.2,0,0,0-1.8-.2c-.2,0,.2.5-.8.6s-.7.3-1.7,0l-2.7-.5-1.3-.5s-1-1-1.2-.9-.4-.5-.4-.5v-5.8l-2.2-2-1.4-.7a7.7,7.7,0,0,0-1.2,1c-.3.2,0,1.9,0,1.9l-1.4.3H65.1c-.2.1-.1.4-.9.6l-2.3.8a12,12,0,0,0-2.2,1l-.8,1.7,1.2,3.4.6,2-.6,1.2-3,3.6-.4,1.9.8.7,1.4,1.3.2,1.6.2,3.9.4.2.6.6a7,7,0,0,1,2.1.5c.8.5.6.8,1.5,1.3s.8.1,1.6,0,1.1-.2,1.6.2.6.6.9.3a.6.6,0,0,0,0-.9c-.3-.2-.9-.4-.3-.5h1.4l1.2.5.9.5c.3.3-.3.5.6.8s1.3-.3,1.6-.7.2-.9.8-.6,1,.7,1.2.6.4-.5.4-.5-.1-1.1-.1-1.5-.5-.8.2-1.5.9-.8,1.2-.7.5.3.9.2.6-.1.8-.5a1.3,1.3,0,0,1,.7-.4,1.4,1.4,0,0,0,1,.9c.7.3.9,0,1.6.2s.9.1,1.1.3a1.2,1.2,0,0,0,.5.6c.4.4.5.3.9.4s.6,0,.7.2-.3.6.1.6.5-.4.9,0a2.6,2.6,0,0,1,.7,1.5c0,.5-.3.7,0,1.3s.5.9.9,1.1.8.2,1.3.4.9,0,1,.5.3.4.3.7,0,.5.6.7a4.2,4.2,0,0,0,2.5.6l1.9-.4c.7-.2,1-.6,1.4,0a1.9,1.9,0,0,0,.8,1,4,4,0,0,0,1.3.7c.7.3.4-.2,1.5.6a5.1,5.1,0,0,0,1.9.9l1.6.6c.5.3.5.7,1.2.1a4,4,0,0,0,1-1.2c.3-.2.2-.6.9-.3s.8.2.9.4,0,.5.8.5.7-.3,1,.1.6.2.9.8a3.5,3.5,0,0,0,.7.9c.3.4.5-.3,1.1.7s1.2.2,1.6.8.5.9,1.1.6.7-1.1,1.2-1.3.5.3,1.2.8.6,1.1.6,1.7-.3.7.3,1.3.9.8,1.2.8.6.2.8,0a.5.5,0,0,1,.8,0l.7.9.5.6a1.5,1.5,0,0,0,.5,1.1c.6.4.3.2,1.2.5s1,.3,1.4.8a4.4,4.4,0,0,0,.8,1c.1.1.2.1.2.2l5-1.5Z"/>
      <path d="M127,326.3l4.9-1.4,9.1-2.6a8.3,8.3,0,0,1,1.6,0c.4.1,1.1-.4,1.4-.4l1.5.3c.2.2.2.7.5.9s.5.1.9.2.4,1.5.4,1.5l6.2.3,2.3,1.5.6.8h3.5l.9-1.9,1.8-.2,1.1,1.7,1.3.4,1.4-.6,1.1-.6,1.7.2,2.7,2.7,1.2.2.6-.5,1.8-2.5h.9l1.8,1.6h1.6l1.3-1.3,1.8-5,2-1.1.8-1.4.9-1.1h2.6l1.4.6,1.8-.6,1.1-1.6v-1.5l1.3-.7h.6l2-2.7.7-.4a20.8,20.8,0,0,1,2.5,0l2.8-.9.5-1a7.6,7.6,0,0,0,1.3.7,13.1,13.1,0,0,0,1.5-.5l1.4.4.3,1,1.1.5,1,1.1c0,.2.9-.8,1-.8a8.9,8.9,0,0,1,1.7.8,6,6,0,0,1,.9,1.3c0,.2.2.7,0,.9s-.8.4-.8.5.2.8.2.8.8.3.9.6l.6,1.3v1.5l.9,1.1c.2.3,1.2-.3,1.2-.3l.4-.8h1.3l.9.5.6.7.4-.7s.6-.3.9-.1a3.4,3.4,0,0,1,.7,1.1l.6.3a3.4,3.4,0,0,1,1-.4,9.1,9.1,0,0,1,1.6,1s.2,1.7.6,1.8,1.2.3,1.3.2.7-.3.9-.1.4-.3.5-.3.5-.7,1-.7h1.7s1.3.2,1.2.5.3.4-.4.5-1.4.2-1.6.5-.2.6-.4.9l-.6.6.9.4c.3.2.5.3.5,1a13.6,13.6,0,0,0-.1,1.6,1.1,1.1,0,0,0-.3.7c-.1.3.4.4.1.9a12.3,12.3,0,0,0-.8,1.2c-.1.3.7,1.3.9,1.5s.9.3.7.9l-.4.8s-1.3.3-1.3.5a6.1,6.1,0,0,0,.3,1.1c.1.3.7.6.7.6s.3-.8.7-.8,1.1.6,1.1.6l-.3.9a.9.9,0,0,0,.3,1,6.2,6.2,0,0,0,1.2.8l1.2-1.3c.2-.2,0-.6,0-.7s-1.3-.1-1.2-.5-.2-.6.1-1a3.1,3.1,0,0,1,1-1l.8.8a1.9,1.9,0,0,0,1.3-.2.8.8,0,0,1,.9-.2c.4.1.6.2.8.1s.5-.4.7-.3.3.4.3.5.2.5,0,.7l-.7.3c-.4.2-.5.3-.5.5a1.9,1.9,0,0,1-.2.8l-.4.3v.3h2.2s.5-.9.6-.9l.6-.5a2.3,2.3,0,0,1,.6.7c0,.2.1.6.3.7h1.2a6.4,6.4,0,0,0-.2-.7l-.4-.6s.3-.3.5-.3l1.3.3a9,9,0,0,1,.9,1c.1.2.6.3.6.6v.9l-1,.7-.3.9s-.2.4.2.5l.8.3a11.1,11.1,0,0,1,.3-1.3,3.6,3.6,0,0,1,.3-.7,3.4,3.4,0,0,1,1-.4s.4.8.7.9l1.2,1.1c.1.1,0,.4.5.1s.6-.3.6-.5-.1-.8-.1-1.2a6.8,6.8,0,0,1-.1-1.2v-.7h1.4" style="fill: none;stroke: #fff;stroke-miterlimit: 10;stroke-width: 0.565173476353961px"/>
      <path d="M203.9,309.1l-.8-1.3-1.2-.4-.8.9-.9-.5h-.7v.6h-.9v-1s-.5-.7-.6-.7l-1.3.3-.6-.7h-1.4s-1-.6-.9-.7a7,7,0,0,0,.3-1.2l-1.2-.4s.4-.5,0-.5l-2.1-.3v-2l-.8-.4c-.2,0-1.1.4-1.1,0v-1.4s.3-.9,0-1H188c-.1,0-.7,0-.7-.5v-.9c0-.3-1-1.4-1-1.4l6.2-5.6V288l1.4-1,1.6.5.6-.9.6-.5.7-.5c.2-.2.4-.5.3-.7s-.5-1-.4-1.1l1.2-.3s-.3.3.2.5.8.5,1,.4a2.7,2.7,0,0,0,.4-.7l-.4-.9-.6-1.4s-.9-.6-.9-.9a6.2,6.2,0,0,1,.3-1,11.3,11.3,0,0,0,1.1-1.1,6.5,6.5,0,0,0,.5-1.8,5.3,5.3,0,0,1,.5-1.5,5.6,5.6,0,0,0,.4-1.5c.1-.1.9-3.2.9-3.2l2.1-2.1,1.7,1.4h.8a7.9,7.9,0,0,0,1.3-1.3l1.1-.9a8.1,8.1,0,0,1,1.8-.8,6.8,6.8,0,0,0,1.7-.8,12,12,0,0,1,1.2-1.1l.8-1.3,1.1.2v.6l3-.4,1.3.5c.3,0,1.5.1,1.7-.1a4.2,4.2,0,0,1,1.2-.8c.1.1,1.4-.4,1.8-.4l1.9-.4.5-.7,2.4-.2.7-.5h1.9l1.4-1.2.9-.3.4,1.3s-.3,1-.6,1.2l-1.5.5v2.3h.7s3,3.2,3.3,3.4,2.6-.1,2.7,0l2,1" style="fill: none;stroke: #fff;stroke-miterlimit: 10;stroke-width: 0.565173476353961px"/>
      <path d="M146.1,271.1V252.7l1.6-.3,1.9.8,2.1-.2,1.5.2,1.5.4c.4,0,.9-.5.9-.5l1.1-.7s.4-.5,1.6-.4a7.1,7.1,0,0,0,3.1-.7,8,8,0,0,0,1.8-1v-1l1.4-1.5,2-1.3s1,1.6,1.2,1.5l1-.4a3.9,3.9,0,0,0,.9-1.1,3.1,3.1,0,0,1,1.7-.9h1.2c.7.1,1-.1,1.2-.4s.5-1.1.9-1.2H176l1.4-1c.6-.4.6-.6,1.1-.8h1l1.3.5,1,.6.6-.5s.3-1.2,0-1.4-.1-1.7.6-1.7,1.8,1.4,1.8,1.4-.2.8.8.8l3.7-.4a15.5,15.5,0,0,0,2.2-.1c.6-.1.6-.8,1.3-1s1.2-.3,1.4-.1.3.8,1.3.8h2.2a24.5,24.5,0,0,0,3.4-.4,6,6,0,0,1,2.7-.2,14,14,0,0,0,2.7.1c.3,0-.9-.7,1.1-.4a11.5,11.5,0,0,0,3.6-.1c.5,0,.2,1.3,1.3,1.4s1.6-.2,2.1-.1a3.4,3.4,0,0,1,1.3.5,2,2,0,0,0,.9.5H218c.7.1.5-.8,1.4.2s2.1-.3,2.1-.3l2.1-.6,1.5.5-9.1,5.4.5,1.3h1.9s0-.6.3,0l.9,1.8.7,1.2,1.4,1s-.1,1.3-.1,1.9a1.7,1.7,0,0,0,.8,1h1.7c.6,0-.9-1.1,1.4,0a8.2,8.2,0,0,0,3.9.8l1.3-.3.9-.8h1.6a3,3,0,0,0,1.5,0c.8-.2,1.1-.6,1.5,0s.9.6.9,1.1a5.8,5.8,0,0,1,.1,1l-1.2.8-1.9,1.6" style="fill: none;stroke: #fff;stroke-miterlimit: 10;stroke-width: 0.565173476353961px"/>
      <path d="M124.7,220.1a3.9,3.9,0,0,1-.2,1.8,4.2,4.2,0,0,1-.9,1.4l-1.8,1.4c-.2.3-.6.4-.6.9a14.9,14.9,0,0,0,.1,2.8c.2,1.5,1,1.7.3,2.4l-1.8,1.6-.6.8-1,1.1a6.3,6.3,0,0,0-1.9.4,24.8,24.8,0,0,0-2.4,3.6" style="fill: none;stroke: #fff;stroke-miterlimit: 10;stroke-width: 0.565173476353961px"/>
      <path d="M225.1,242.1l2.3-1.4,1.5-.5s-.1-.9.5-1.2l1.1-.5s.3-.7,0-1-.8-.1-.5-.8.6-1.1.5-1.3-.8-.6-.8-.6l-.3-.7,1.6-1.5.9-.7a2.5,2.5,0,0,0,1.2.3,2.1,2.1,0,0,0,1.1-.9,4.2,4.2,0,0,0-.2-.6s-.4-1.5-.2-1.7.9.1.7-.2-1.8-1.1-1.8-1.1.1-.3.7-.5.7-.3,1.1-.3.4-.2,1.1.1a9,9,0,0,0,1.6.5c.4,0,.1.3.8-.3a7.7,7.7,0,0,1,1.5-1,1.3,1.3,0,0,0,.6-.6,8.3,8.3,0,0,1,.1-1.2c.1-.6.2-1.4.8-1.5h1.3c.7.1.6-.1.9-.1s1.1-.5,1.1-.5H247a.8.8,0,0,0,.4-.3,4.7,4.7,0,0,0,0-1.2v-1.6s1.2-.4,1.7,0,.4,1,.9.6-.5-.3.4-.3,1.4-.1,1.7.3.1.5.8.4.7-.4,1.1-.3a1.1,1.1,0,0,1,.8.4s.2.6.5.3.1-1.2.1-1.2l-.3-.4h1.4c.2,0,.3.4.8.9s0,.7,1,.9a3.5,3.5,0,0,0,1.7-.1l.8-.4a4.1,4.1,0,0,1,1.2-.7l3.5-.6,1.9-1a1.3,1.3,0,0,1,1.2-.4,17.7,17.7,0,0,0,2.3.1l2-.4,1.6-.3c.3-.1.9-1,1-1.2a.9.9,0,0,1,.7-.7c.7-.2.4-.7,1.1-1.1l1.3-.7.7-.5s0-.1.7-.2h2.3s0-.4.8-.3.7.5,1.6.6h1s.1-.9.6-.9a2.9,2.9,0,0,1,1.4.4c.4.2.9.3,1,.8s-.4.9.4.9.6.4,1.2-.1a2.2,2.2,0,0,0,.8-1l1.5-1,1.7-.8" style="fill: none;stroke: #fff;stroke-miterlimit: 10;stroke-width: 0.565173476353961px"/>
      <path d="M209.5,240.1V189.5l2.1-1.3,1.3-3.8a10.4,10.4,0,0,1,2-1.2,10.8,10.8,0,0,0,1.9-1.4l1.9-1.5a4.6,4.6,0,0,0,1.2-1,8,8,0,0,0,0-2.2l5.9-3.6,2.5-.2a10.9,10.9,0,0,0,2.3-.6l1.9-1c.5-.4,1.6-.7,2.1-1.3a7.9,7.9,0,0,0,1-1.6c.2-.3.5-1.3,1-1.7s3.8-6,3.8-6" style="fill: none;stroke: #fff;stroke-miterlimit: 10;stroke-width: 0.565173476353961px"/>
      <path d="M187.7,136.7l-1.5,3.4v2.4l-1.1,1.3a5.7,5.7,0,0,0-1.1,1.6,6.4,6.4,0,0,0-.1,2,3,3,0,0,1-.4,1.9,22.5,22.5,0,0,1-1.9,1.5l-1.9-.5s-1,0-.9.5a6.1,6.1,0,0,1,.3,1.7c0,.3-1.7,1.7-1.9,1.8a18.2,18.2,0,0,0-1,1.9l3.3.5v2.7l3.3.8,3.1-.8s0-1.1,1-1.2,1.6-.6,2.3-.6,1.7.1,2.2-.3.5-.7,1.3-.7h1.3a5,5,0,0,1,1.8.2l2,.4a7.3,7.3,0,0,0,1.8.2h1.6a8.5,8.5,0,0,0,2.5-.9,20.4,20.4,0,0,1,3.2-.8l4.1.3,2.6.5h2.6l2.6-.4a4.9,4.9,0,0,1,1.6.1c.9.2.6.4,1.6.4h1.8a4.6,4.6,0,0,0,1.4-.5l.8-.7,1.1-.3a9.8,9.8,0,0,1,2.3.1l2.3.4,2.1.7c.2.2,1.8,2.6,2.2,2.6h1.8s1.2.8.9.9,1.6,1.7,1.6,1.7l3.7.3h3.1l3.6-2.2" style="fill: none;stroke: #fff;stroke-miterlimit: 10;stroke-width: 0.565173476353961px"/>
      <path d="M176.2,156.2v2.4s.6,1.3.9,1.3h1.3v1.5l-.8.5a3.7,3.7,0,0,1-.3,1.5c-.2.5-1.4,1.4-1.6,1.6s-.7.5-.6.8a4,4,0,0,0,.7.9h1.7l1.9,1.3s.2,1.1,1,1.4,1.4.4,1.1.6l-1.7.5-.6,1.8v1.6s1.1.7.1.7a3,3,0,0,1-1.7-.7s0-1.1-.5-1.1-1.1,0-1.4.4a4.8,4.8,0,0,0-.6,1.4,6.6,6.6,0,0,1-1.2,1.6l-1.8,1.5c-.4.5-.7.3-1.3,1.2l-1.1,1.8-2.4-2.4s-.6-1.5-1.2-1a3.8,3.8,0,0,0-1.1,1.6c-.3.5-.7,1.6-1.3,1.8a3,3,0,0,0-1.3,1.2c-.3.4,0,1.6,0,1.6l1,.9a1.1,1.1,0,0,1,.4,1c0,.6-3.2,3-3.2,3s-.8-.5-1.3,0-.6,2.5-.7,2.9-.1,1,.4,1.1a2.6,2.6,0,0,1,1.5,1.4,39.6,39.6,0,0,0,2.9,3.9l-.6,1.4,1,2.1a8.3,8.3,0,0,1,1.9,1.4c.6.6,2.1,1.3,2.2,1.8s.9.8.9.8l1.2-.2,1-.7a7.4,7.4,0,0,1,1.5-.3,1.1,1.1,0,0,1,1-.2l1.1.2c.8.1,1.1.3,1.7.1l1.5-.2a2.4,2.4,0,0,0,.9-.8l.7-1,2.7-1,1.7.6c.3.2.6.8,1.1,1a2.9,2.9,0,0,0,1.6-.1,3.9,3.9,0,0,0,1.3-.6l.8-1.3,1.5-2,1.3-.7,2-.4a8.6,8.6,0,0,0,2.9-1.2c1.3-.9,1.3-1.6,2.3-1.8a19.4,19.4,0,0,1,2-.5,4.5,4.5,0,0,0,2.1-.9c.5-.5.5-.7,1-.9l1.6-1,4.2-1.8" style="fill: none;stroke: #fff;stroke-miterlimit: 10;stroke-width: 0.565173476353961px"/>
      <path d="M132.4,211.5c.6,0,.6.3,1.7,0a2.4,2.4,0,0,0,1.5-.9c.2-.2.6-.7.9-.8a6.6,6.6,0,0,1,1.2-.6l1.4-.3a8.7,8.7,0,0,0,2.3-.8,8.3,8.3,0,0,0,1.5-.9l.8-.9-.8-1.3s-1-.4-.9-.5l.6-.6a15.5,15.5,0,0,1-1.2-2.2l1.1-1.2s.4-.8.9-1l1-.6,1.5.7c.4.2.9.2,1,.6a12.9,12.9,0,0,0,.4,1.9,20.7,20.7,0,0,0,.8,2c.1.2-.1.4.8.7s.8.4,1.2.3,1.1-.8,1.3-.8h1.1l1.4.6a4.7,4.7,0,0,1,1.9.6,5.9,5.9,0,0,0,1.4,1.2l1.1.2c.2,0,2.2-13,2.2-13" style="fill: none;stroke: #fff;stroke-miterlimit: 10;stroke-width: 0.565173476353961px"/>
      <path d="M123.1,218.3s-.1-2.9,0-3.1a9.4,9.4,0,0,0,1-1.4,2.1,2.1,0,0,1-.5-1.6c0-1-.3-1.5.2-2.1a5.6,5.6,0,0,0,.8-1.5c.2-.3-.3-1.6-.3-1.6l-1.2-1.6a2,2,0,0,0-.9.2l-1.6,1.1c-.3.4-.5.8-.7.7l-2.1-1.3-1.7-.9-1.1.3-.8-.7a1.2,1.2,0,0,1,.3-1,31.9,31.9,0,0,0,2.2-3.6l-.3-5.7a40.2,40.2,0,0,1,1.8-3.6c.3-.2.4-2.1.3-3a21.9,21.9,0,0,1-.5-3.1,19.5,19.5,0,0,1,.5-3.6c.2-.5,0-1.1.2-1.4a20.4,20.4,0,0,0,1.1-3.2s.5-2.6.6-2.9v-2.8a19.3,19.3,0,0,1,.1-2.3c.1-.3.1-.7.5-.7s.2.3.8.3a1.7,1.7,0,0,0,1.2-.3l.8-.5,1.5.5h1.5l1.1-1.3h1c.4.1.7.6.8,1.4s.4.7.2,1.7-.5,1.1-.3,2a6.8,6.8,0,0,0,1,2.1,4,4,0,0,0,1.3,1.5l2,.3a2.8,2.8,0,0,1,.9.7c.3.4.4,1.2,1.2,1.2s2-1.3,2-1.3a3.3,3.3,0,0,1,.6-1.3l1.8-1.5,1.8-1s.6-.7.9-.3.4.7.3,1.1,0,.4-.5,1.3-1.4,1.1-.4,1.6,1.4.8,1.6.4.4-1.1.7-1.1,1.9,1.9,1.9,2a2.7,2.7,0,0,1,.6,1.5c0,1,0,1.6.3,1.9a2.3,2.3,0,0,1,1.1,1.1c.2.5.6,1.1.8,1.6a9.4,9.4,0,0,1,.3,1.6,2,2,0,0,1-.4,1.6c-.6.6-.2,0-.6.6s-.5.6-.4,1.4-.2.8.4,1.2a3.5,3.5,0,0,0,1.3.5s1.7.1,1.8.3l.6.9c.3.6,1.1,1.7,1.2,1.9a2.5,2.5,0,0,0,1.1.4c.6.1.9,0,1.3.7l.8,1.3,1.3-.2c.3,0,1.8-2.5,1.8-2.5" style="fill: none;stroke: #fff;stroke-miterlimit: 10;stroke-width: 0.565173476353961px"/>
      <path d="M124.6,220.1h1.6c.3,0,.9-.6.9-.7a1.1,1.1,0,0,1,.3-.8l1-1c.2-.3.6-.3.6-1.1s-.3-1.1,0-1.5,1.2-.6,1.7-1.5.2-1.1.5-1.5a2,2,0,0,1,.8-.4h.4l.7-1.5,1.3-1.1s.3-.1.1-.3l-.9-1.2-.5-1.8.6-1.8s.6-.7.6-1a5.3,5.3,0,0,1-.1-1.3c.2-.4.4-1.2.9-1.5a4.1,4.1,0,0,0,1-.9,7.4,7.4,0,0,0,.5-1.9,5.7,5.7,0,0,0,.3-1.8,6.1,6.1,0,0,1-.3-1.9c0-1.3,0-1.6-.3-1.7l-.7-.4s-.8-.1-1,.1a5.5,5.5,0,0,1-.4,1.4,18.7,18.7,0,0,1-.9,1.9l-.8.6-1.1.3c-.6.3-.3.6-.3.6a2,2,0,0,0,.2.9,2.3,2.3,0,0,0,.7.7c.3.1.5.1.6.5v1.4c0,.8-.1,1.1-.3,1.3s-1.1.1-1.2.5a1.1,1.1,0,0,0,0,1.1c.2.5.4.4.5.7a1.3,1.3,0,0,1,.1.9,2.5,2.5,0,0,0-.4.9c0,.6.2.7.2,1.2a4.4,4.4,0,0,1-.2,1c-.3.4-.6.4-.8,1s-.1,1-.2,1.2a1.8,1.8,0,0,1-.9.4c-.2,0-.6-.3-1-.2l-1.2.5a6.3,6.3,0,0,0-.7,1.2,5.4,5.4,0,0,0,.5,1.1l.2.8s-.7.8-.7,1.2a10.3,10.3,0,0,1-.3,1.2c0,.5-.1.7-.1,1s-1.1.7-1.1.7l-.3,1.2A3.8,3.8,0,0,0,124.6,220.1Z" style="fill: none;stroke: #fff;stroke-miterlimit: 10;stroke-width: 0.565173476353961px"/>
      <path d="M185,135.9l-1.2.5-1-.3-.5-.6-.7.3s-.1.7-.1.9.2.6-.2.8l-.7.4-.8-.9-.6.3a3.6,3.6,0,0,0-.2,1c-.1.3.1.7-.3,1l-.7.6-1,.2-1.1-.2s-.8-.7-1.1-.6-.2.2-.4.5a2,2,0,0,0-.1.9v5.7l-1,1.1c-.2.3.1.6.2,1.1s.5.8.3,1l-1.5.8a3.4,3.4,0,0,1-1.5.7,3.2,3.2,0,0,1-1.1-.4v-1l-.8-1.5-1.3-.4c-.2,0-.9-.1-.8.4a1.8,1.8,0,0,0,.3,1.1l.8.9.7,1.3c.1.4.2,1.1.2,1.1l-.9.4a.7.7,0,0,0-.3.5c0,.4-.1,2.7-.1,2.7l-6.5,7-2.2-.2c-.1,0-.8-.7-1.3-.5a1.9,1.9,0,0,0-1.1.6,7.9,7.9,0,0,0-.3,1.3s.4.8-.1,1l-1.1.6c-.4.3-1.6,0-1.8.2s-.1.9-.3,1.3-.6,1.1-1,.9-1.4-.2-1.7-1.1-.7-.9-.1-1.6a3.2,3.2,0,0,1,1.3-1.1,2.8,2.8,0,0,0,1-.6s.4-1.1.1-1.6-.9-.8-1.3-1.3l-.7-.9a6.2,6.2,0,0,0-1.6.4,3.3,3.3,0,0,1-.8,1.1c-.7.7-1,.9-1.1,1.4a7.7,7.7,0,0,0,.1,1.8l.2,1.4-.3,1.3-.8.8-1.1.2-.7-.8h-.8a5.6,5.6,0,0,0-1.9.7,4.8,4.8,0,0,1-1.6.1,9.8,9.8,0,0,1-2.2-.2,8.5,8.5,0,0,0-1.4-1.1c-.4-.3-.4-.3-1-.3s-1,.1-1-.7a1.5,1.5,0,0,0-.5-1l-1.3-.5a1.2,1.2,0,0,1-.5.8c-.5.2-.9.7-1,.1s-.5-.5-.3-1.3a12.2,12.2,0,0,0-.1-2.1c0-.4,1.7-1-.3-1.4a4.6,4.6,0,0,0-2.8,0c-.6.1.1,2.2-1.1,0a17.3,17.3,0,0,1-1.7-3.6l-.9-1.1-1.2,1s-1.3,1.7-1.2,2.1.5.9.6,1.6.7.5.1,1.6-1,1.3-.8,2.1.4,1.2.4,1.5l-.7,1.8" style="fill: none;stroke: #fff;stroke-miterlimit: 10;stroke-width: 0.565173476353961px"/>
      <path d="M43.7,124.9h0Z" style="fill: none;stroke: #fff;stroke-miterlimit: 10;stroke-width: 0.565173476353961px"/>
      <path d="M315.3,281.3c0-.1,0-1,.2-1.1s.6-.3.4-.7-.1-1-.3-1.2-1-.5-1.2-.8a2.5,2.5,0,0,1-.4-1.2c0-.3.1-1,.1-1.2s-3-7.4-3-7.4v-1.6a3.2,3.2,0,0,1-.1-.8l-.8-1.3-.9-.7v-4h-1.1a1.7,1.7,0,0,1-1.2-1,15.6,15.6,0,0,1-.5-2.2c-.1-.4-.6-.9-.1-1.3l.8-.7c.2-.2.1-1,.1-1a22,22,0,0,1-2.8-1.8v-1.1a4.4,4.4,0,0,0-.7-.8l-4.2-3.9h-1.3a19.1,19.1,0,0,1-.6-2.1,2.9,2.9,0,0,0-.7-1.2c-.2,0-1-.4-1.4-.3s-.7.6-.9.4l-.6-.9a16.2,16.2,0,0,0-2.3-.1c-.1.1,0,.9-.5.9s-.9.3-1.1,0,.5-1,.5-1L301.4,231h.8c.1,0,.4-.6.4-.7v-.8l1.8-1.6a4.8,4.8,0,0,0,0-1.2l-.9-1.4H302l-.2-.4.2-.9c0-.2-1-1.9-1-2s-.4-2.3-.4-2.5-.6-1.3-.7-1.3a6.5,6.5,0,0,0-1.6.3h-1l-1.5-2.4-.3-1.3a9.9,9.9,0,0,0-.9-1.5,18.3,18.3,0,0,1-.2-2.1l-.7-2.1-1.2-2.2.2-4.4s-.2-1.5-.3-1.4-2.6-3.1-2.6-3.1l.6-1.8a16.3,16.3,0,0,0,.7-3c-.1-.3-.1-5.8-.1-5.9s.4-1.8.4-2a6.3,6.3,0,0,0-.4-1.4c-.2-.4-.8-.9-.5-1.2s.7-.3.8-.6v-1.3l-.8-1.6.7-1.3,3-1.3a8,8,0,0,0,2.2-1.7,12.1,12.1,0,0,0,.5-1.4,7.8,7.8,0,0,0-.2-1.4,8.3,8.3,0,0,1-.8-1.2l-.2-2a1.8,1.8,0,0,0,.7-.5,6.6,6.6,0,0,0,.1-1.4v-.9l1.6-2,1.8-1,1.1-1.3v-1.1l-1-1.2s-.7-1.8-.7-2-.2-2-.2-2.2a26,26,0,0,0-2.8-1.5l-3.2.2s-.3-.7-.7-.7a4.1,4.1,0,0,0-1.6.2c-.2.2-.8,1.1-1.2,1.2l-1.4.7-1.1,1.1H286l-1.4-.7H283l-.7.6H281l-1.2.9h-2.6l-1.7-.5-1.5.3s-.6.6-.8.6h-1.9c-.1,0-.3.4-.8.6a4,4,0,0,1-1.9.2l-2.6-.9a9,9,0,0,0-3.1-.4c-.9.1-1.2-.4-2.2-.5s-2.6-.3-2.7,0,.3.7,0,1.1-.5.5-.8.7a7.3,7.3,0,0,0-.9.9,4.4,4.4,0,0,1-1.2.8,4.1,4.1,0,0,1-1.4-1c-.2-.4-.7-.9-1.2-.8l-1.7,1L234,138.1s-.5-.6-.9-.6h-2.5l-.9.9-1.3-.2c-.1-.1-.6-.8-1.2-.8l-2.1-.5-.7.2-2.1-2.2h-6.8a5.5,5.5,0,0,0-1.8.6c-.5.3-.5,1-.8,1.1a3.5,3.5,0,0,0-1.4.3c-.1.1-.1.5-.5.6a3.6,3.6,0,0,1-1.4.2l-1.2-1.1-1-.4c-.3,0-.5.3-.7.3H202s-.2-.4-.4-.4h-.8l-1,.4-2.8-.2a5.5,5.5,0,0,0-.7-.9l-1.1.2s-.2.5-.6.6h-1.1l-.4-.8-1.2-.2-.7.6c-.2.3-.2.5-.4.6H186l-1-.9s-.7-.5-.5-1.1a1.3,1.3,0,0,0-.1-.9l-2-2.7-.3-2.8A7.6,7.6,0,0,0,181,127c-.2-.1-1.5.5-1.5.5h-3.7l-.3-.5.3-.9-1.3-1.3.3-1.4a6.6,6.6,0,0,0-.1-1.3c0-.2-.4-1.5-.4-1.7s.4-3.6.4-3.6l.5-3.4s.8-.9,1-.9.5.5,1-.2-.1-2.3-.1-2.5a4.4,4.4,0,0,1,.2-1c.1-.2-.4-1.1-.5-1.4s-.3-2.6-.3-2.9-.1-1.7-.1-1.7l-6.8-6.2s-2.2-11-2.2-11.2a12.7,12.7,0,0,0-.7-1.2l-1.7-.5a3.5,3.5,0,0,0-1.3.5,3.1,3.1,0,0,1-1.1.5l-.5-.8s.2-1,.2-1.2a.7.7,0,0,0-.3-.6,4.1,4.1,0,0,1-.7-1.1c0-.2-.1-.9-.1-.9l-1.5.2s.1.9-.3,1.1l-1.2.2c-.1,0-.5.6-.7.9a.7.7,0,0,1-.4.5l-4.2.4,1.9-5.6,3.4-4,1.2-1.4,1.9-4.5.8-.8.6-.7-.2-.7a6.2,6.2,0,0,0-.9-1.2l.5-2.8,1.1-1.7V55.7l2-3.2,1.1-.5,1.9-2.4.9-3,1.3-1.8,1.7-4.9,2-3.6,2.1-1.6,1.8-.9,1.8-.2,4-6.5,3-6.3,6.3-1.3,6.4-2,2.3-1.1.9-1.6-.5-.9a3.4,3.4,0,0,1,.3-.8l.3.5c0,.1,0,.5.2.5h.8l.8-1.1,1.7-1,1.1-.3.2-1.1c.1-.2-.9-1.7-.9-1.7l-2-3.2-.2-1.9-1-.7-1.5.2a5.9,5.9,0,0,0-1.1-.9h-1.4l-1.6-1L196,.3l-1.3.2-1.9.2v.5h.7c.1,0,.3-.5.7-.2l.5.4c.3.2.7.4.2.5a9.3,9.3,0,0,0-1.4.5c-.1.2-.7.5-.7.4s.2-.8-.4-.9-.6.4-.5.7a.6.6,0,0,1-.1.6c-.1.2-.2,0-.5.3l-.7.6c-.2,0-.7-.4-.7-.4s-.5-.1-.3-.3.3-.9,0-1,.1.9-.7,1.3-1.7.2-1.7.6a.8.8,0,0,0,.3.8,1.2,1.2,0,0,1,.8.1,2.3,2.3,0,0,1,.7.8c.1.3.5.6.5.7a1.9,1.9,0,0,1-.9.5c-.2.1-.9-.4-1-.2s.6.8-.1.9l-1,.2s-.5.1-.5-.4v-1s.5.1.6-.2-.2-.7-.2-.7-.8-.5-.9-.3-.1.6-.5.6-.3-.1-1-.1-1-.3-1.2-.1-.2.2-.6.1-.6-.2-.7-.1a1.4,1.4,0,0,0-.2.6,6.2,6.2,0,0,0,1.2.8s.3.3.3.5V8.9l-.3,1.4-.8,1.3a4.5,4.5,0,0,1-1.5,3c-1.4,1-1.9.7-3.1,1.8s-.6,1.3-1.6,1.4H174l-1.6.3c-2.2.4-1.9.2-1.9.2a2.9,2.9,0,0,0-1.6.3l-1.2.9a3.2,3.2,0,0,1-1.2.8c-.4.2-1.3.2-1.4.4a4.1,4.1,0,0,0-.5.9l-1.2,1s-.2.6-.7.7l-1.5.6s-.8.4-.9.7l-.5.9a2,2,0,0,1-.8.8l-.7.3a2.7,2.7,0,0,0-1,.4c-.4.2-.6.3-.6.4s.3.5,0,.7a3.3,3.3,0,0,1-2.5,1.9c-2.1.4-1.1.6-3.1.4s-2.4-.2-2.9,0a3.6,3.6,0,0,1-1.1.4,3.5,3.5,0,0,0-1.2-.2l-2.2.2h-1a1.6,1.6,0,0,1-1-.2,6.2,6.2,0,0,1-1.4-.6c-1-.5.4,0-1.6-.7s-1.8-.7-2.4-.7h-1.2a4.3,4.3,0,0,1-1.2.2s-.1-1.1-.8-.2a3.3,3.3,0,0,0-.8,1.3s-1.2.4-1.2.7a13.3,13.3,0,0,0,0,2,8.5,8.5,0,0,0,0,1.6c-.1.6.6.8,0,1.3s0,1.5-.7,1.7-1.4,1-2.9.8a26.7,26.7,0,0,1-4.5-.8l-3.5-1.1c-.8-.2-.9-.9-2.1-1s-1-.3-1.7,0a5,5,0,0,0-1.5.8c-.5.3-.8.4-1,.8s0,.5-.6.7a3.5,3.5,0,0,0-1.5.7,1.3,1.3,0,0,1,0,.9c-.1.4-.2.8-.4.8a4,4,0,0,1-1.1,0,2.7,2.7,0,0,1-.7.8,5.3,5.3,0,0,1-1.4,1.1c-.8.4-.3.1-1.3.4s-.8,0-1.2.6a9.1,9.1,0,0,1-.6,1.1c-.2.4,0,.6-.6.8s-1-.1-1.2.1-.2.5-.9,1.1-.7.9-1.2,1.1-.8-.2-1.1.2-.8.5-.2.8,1.1.5.7,1.5-1,1-1.1,1.4,0,.9-.6,1.1-1.2.3-1.2.7-.4.8.2.9.7-.1,1.1-.4.6-.5.8-.4.3.3.3.6.1,1-.1,1.2a1.8,1.8,0,0,1-.8.5c-.2,0-.8-.2-.8-.1s-1,.4-.8.9.5.5.1.9-1.2.4-1.7,1-.6.9-.1,1.2.4-.1.9-.6.5-.7,1.1-1,.8-1.3,1.3-1.3.8.1.8.8.7,1,.1,1.2-.9.2-1,.3-.2.4-.5.7-1-.3-.3,1,.2.8.6.8,1,0,1.1.2.1.8-.2.9h-.9s-.5.5-.5.9.5.4,0,.7-.6.1-.7.7-.5.6-.2,1,.4.4.2.9.2.7-.5,1.5-1.1.5-1.4.9-.2.5,0,.8.4-.1.8,0,.6.3.8,1-.2.7.5,1A1.3,1.3,0,0,1,98,73c-.2.8-.3.5-.6,1.4s.1.6-.6,1.4a2.2,2.2,0,0,1-1.2.9c-.6.3-.6,0-.9,0a1.1,1.1,0,0,0-.9.3c-.3.3-.1.7-1,.5s-1.7,0-1.3-.4.2-.2.7-.4.9-.5.4-.5a5.6,5.6,0,0,0-1.3,0c-.4,0-.3.2-.4.3s-.3.1-.7,0a1.7,1.7,0,0,0-1.2.2c-.4.1-.3,0-.6.5s.1.7-.5.7-.4.1-.9.1-.2-.2-.7.1-.6.1-1,.6-.4.3-.6.9.4.5-.3.9-.8.2-1.2.5-.2.1-.4.5.1.5,0,1.3,0,.7-.2,1.1-.5.4-.8.9-.7.2-.9.6-.1.3-.4.9a3.6,3.6,0,0,0-.4.9c-.1.6.3.6-.3.8l-1.2.3c-.2,0-.5.1-.8.6s.2.5-.4.8l-1,.5c-.6.3-.5.4-1,.9A5.8,5.8,0,0,1,74,92.3c-.9.5-.1,0-1.4,1s-.6.7-1.8,1.2a17,17,0,0,0-1.6,1.1c-.4.3-.8.2-1.4.2a15.9,15.9,0,0,0-2.6.4c-.3.1-.3.1-.3.6s.3.5-.3.7-.8.2-1,.6-.6.5-.1.8.6.3.8,0,.2-.6.6-.3a.9.9,0,0,1,.4.5.8.8,0,0,0,.8.3.8.8,0,0,1,.5.2s-.1.3.4,1.1.5.2.9.9.5.3.4,1.1-.3.8-.5,1.5-.6.6,0,1.4.4.8.4,1.3a8.7,8.7,0,0,0,.1,2.3c.1.5.3.3.4.8s.2.5,0,.9a1.3,1.3,0,0,0-.4,1.3c.2.9.1,1.3-.3,1.6s0,.7-.6.9a6.9,6.9,0,0,1-2.1.1c-.9-.1-1.3.1-1.4-.7a4.3,4.3,0,0,1,0-1.6c0-.7-.1-.8.1-1s.3-.4.6-.3.1.8.6.3l.7-.7c.3-.4.4-.4.3-1s.3-1-.4-1h-1a.6.6,0,0,0-.5.3c-.3.4-.2.6-.4.7s-.1.4-.5.2-.7,0-.5-.4.1-.4.4-.7.5-.2.5-.5l-.2-.8s-.1-.5-.3-.6-.7.1-.3-.3.5-.8.4-1,0-.5-.5-.5l-.7.2c-.3.2,0,.5-.6.2a2.8,2.8,0,0,1-1.5-1.8c-.3-1,.2-1.1-.7-1.6s-.9-.4-1.5-.9.2-.6-.8-.8-1.1-.2-1.3-.8-.3-.5-.4-.8-.6-.4-.9-.9.1-.1-.6-.8-.3-.9-.9-.9-.7,0-.8.6a1.9,1.9,0,0,1-.5,1.2c-.4.4-.7.4-.8.7a1.7,1.7,0,0,0,0,1c0,.2,0,.7.4.9a8.1,8.1,0,0,1,1,.9c.4.5.7.5,1,1.1a3.8,3.8,0,0,1,.1,1.5,1.5,1.5,0,0,0,.4,1.1,14.3,14.3,0,0,1,1.6,1.9,9,9,0,0,1,1.1,1.9s-.6-.2-.2.8a7.6,7.6,0,0,1,.8,1.5c.2.6,0,.6,0,1.4a6.8,6.8,0,0,1-.2,1.4c0,.6.3.5-.3.9s-.4.6-1.1.7a3.9,3.9,0,0,1-1.2,0l-.5.6-.9,1.3c-.5.9-.3,1-1,1.7a19.3,19.3,0,0,0-1.7,2c-.8,1-.7.7-.8,1.5s.1,1.1-.6,1.2-1.1.3-1.7,0-.4-.1-.6-.9a4,4,0,0,0-.9-1.6c-.4-.4-.2-.7-.8-.8s-.7-.3-1.2-.1-.8.3-.7.9,0,.9.3,1.3.7.1.7.9-.1,1-.2,1.1h0l-.2.3c-.4.5-.2.3-1.1.6s-.8-.2-1.1.5-.1.5-.3,1.2-.4.8-.5,1.3.1,1-.4,1.5-.9.6-.6,1.1.7.4,1.1,1,0,.6.5.9l2.4,1.9a12.6,12.6,0,0,1,1.6,1.5,1.3,1.3,0,0,1,.6,1.3c0,.6-.3.4-.8.7s-.4.4-.4.9-.5,1.4-.1,1.8.5.8.6.2,0-1.1.3-1.1,1.5,1.1,2.1,1.8a1.9,1.9,0,0,1,.7,2c-.1.9-.3,1.1.2,1.3s.6.6.9.4.2-.3.1-.5-.3-.6,0-.9,0-.5.8-.3.9,0,1.3.4a1.9,1.9,0,0,1,.3.9s-.5.3,0,.6a5.7,5.7,0,0,1,1.5,1.6c.3.5.2.4,0,1s-.3.2-.4,1-.2.6-.1,1.2.2.8.1.9-.7.1-.7.3-.3.5,0,.7.5-.4.5.3-.1.9,0,1.4.1.7-.1,1-.6.5-.8.3a1.3,1.3,0,0,1-.4-.6c-.2-.3,0-.4-.4-.4s-.7-.5-.7,0,.2.7,0,1-.2.6-.3.7a2.1,2.1,0,0,0,.3,1.2l.8,1c.6.7,0,.9.7,1h1.1c.3.1.5-.2.5.3s.1.9,0,1.6.2.9.3,1.6.2.5.2,1.1,0,0,.7.9,1,.7,1.1,1.5.2,1-.2,1.6-.8.3-1.1.9.2.4-.2,1.1-.6,1.2-1.3,1.4-.8-.5-1.5-.1-.5.6-1.3.7-1-.1-1.2.3-.4.2-.2.7.3.9.2,1-.2.2.1.4.4.6.8.3.3-.6.6-.5a1.8,1.8,0,0,1,.5.6s-.5.1-.1.3.7.1.8.2.6.8.1,1-.7,0-.6.4.2.9.2,1.1,0,.3.3.5.5,0,.8.4.5.6.4.8-.5.3-.5.3-.1-.6-.4-.3-.2.7-.2,1.4-.5.9,0,1,.5-.1.8,0,.3.5.5.1.4-.4.6-.3H54a.4.4,0,0,1,0,.5l-.4.3h-.7l-.7.2c-.4.1-.3,0-.4.2a5.5,5.5,0,0,0,.5,2c.3.8.3.7.2,1.3s.1,1.9.1,2.8-.4.8.1,1.3l1,.8c.3.4,0,.6.6.8a2.4,2.4,0,0,1,1.1.8,1.1,1.1,0,0,1,.2.6c-.1.3.2.4-.1.5s-.5.5-.7.1l-.2-.6c0-.2,0-.3-.3-.4s-.9,0-1,.2-.2.3-.1.5l.4.5c0,.2.4.3.2,1s-.3.5-.4,1-.1.5,0,.8.3.4.2.6-.2,0-.3.3-.1.6.1.7.5-.1.3.1a2.2,2.2,0,0,1-.6.7v.3l.2.5c.1.1.6-.2.8.4s.5.7,0,.8-.5.1-.8.2a3.4,3.4,0,0,0-1.5.7c-.3.4-.2.6-.6.9s-.6.1-.7.7.2.8-.2,1-.2.4-.5.2a1.5,1.5,0,0,1-.3-.5s-.3-.5-.5-.2-.4.6-.6.8-.1.1,0,.6a5.3,5.3,0,0,1,.2,1.9c-.1.6-.7.6,0,1.1s.9.5,1.1.9.2.6.4.5.4-.5.7-.3-.1.1-.1.6-.3.7.2.8.5,0,.8.2.2.7.3.9.1.7.4.7.3-.1.5-.4.5-.2.4-.6-.3-.4-.2-.6l.4-.4c.2-.1.2-.1.4-.4s.2-.5.4-.7-.1-.6.5-.5.8,0,1,.3,0,.3.3.5.8.1.6.3-.6.4-.8.5-.2.1-.1.4a3.5,3.5,0,0,0,.1.6c-.1.1.1.3-.3.3s-.9,0-1.1.3-.6.5-.7.8.5.4.7.5.3,0,.4.5-.5.6.3.6h2.3a.8.8,0,0,0,.7-.3c.2-.1.5.1.3-.3s-.4-.4-.3-.7,0-.4.4-.5h.6c.3.1.1-.2.8,0s.9,0,.9.4l.2.6c-.1.2-.6.4-.6.4s-.2-.3-.3,0-.2.5-.2.7-.4,0,0,.7,1.1,1.4.8,1.8.1.5-.7.4-1,.8-1.2,0-.2-.9.1-.9.3-.2.3-.2.2-.3-.2-.6-.6-.5-.9-.3a1,1,0,0,0-.2.7c0,.3,0,.4-.2.6s-.5.3-.5.7-.2,1,0,1.1l1,.3c.4.1.6,0,.6.2a1,1,0,0,1-.6.5h-.8s.7.3-.4.9-1.8.3-2.2,1l-.9,1.4s-.6,0-.7.5a.8.8,0,0,0,.2.9c.1.2.8-.1.4.5a2.9,2.9,0,0,1-.9,1,2.1,2.1,0,0,0-1.2.7c-.4.7-1.1.7-1.4.9l1.6.9.7,2.6s.8,1,1,1l1.8.4a15.8,15.8,0,0,1,1.3,1.3l1.5.4h1.8s1.9-.7,2.5,0a8.3,8.3,0,0,0,1.5,1.2H66l1.8-.8a2.8,2.8,0,0,1,1.6-.8l2.4.2a7.1,7.1,0,0,0,1.5-.7s.8-.7.9-1.1.9-2.1.9-2.3v-1.8l1.5.2a11,11,0,0,0,2.3.9l2.3.3,2.1.9,1.9.4,1-2.9.9-2.9.4-5.4,2.1-3a4.8,4.8,0,0,1,0-1.7,15.2,15.2,0,0,1,1.8-1.8l2.9-3.2a13.3,13.3,0,0,1,0-2,21.4,21.4,0,0,1,.9-2.7l1.5-1.4.5-1.9v-2.8l2.3-2.2,2.5-1.1v-5.2l2-1.4-.5-1.1c0-.2-.2-.9,0-1.3a5.7,5.7,0,0,0,.1-1.3v-1.3s-.1-1,.4-1.3.7-.5,1.1-.4h1.7c.4-.2.5-.4.9-.4h1l.9.2c.3,0,.3-.1.5-.2s.1-.4.1-.4,0-.6-.1-.7a1.1,1.1,0,0,1-.2-1.2c.3-.7.1-.9.5-1a8.4,8.4,0,0,0,1.7-.5h5.4l1,.6-1-.6h-5.4a8.4,8.4,0,0,1-1.7.5c-.4.1-.2.3-.5,1a1.1,1.1,0,0,0,.2,1.2c.1.1.1.7.1.7s0,.3-.1.4-.2.2-.5.2l-.9-.2h-1c-.4,0-.5.2-.9.4h-1.7c-.4-.1-.6.1-1.1.4s-.4,1.3-.4,1.3v1.3a5.7,5.7,0,0,1-.1,1.3c-.2.4,0,1.1,0,1.3l.5,1.1-2,1.4v5.2L99.6,198l-2.3,2.2V203l-.5,1.9-1.5,1.4a21.4,21.4,0,0,0-.9,2.7,13.3,13.3,0,0,0,0,2l-2.9,3.2a15.2,15.2,0,0,0-1.8,1.8,4.8,4.8,0,0,0,0,1.7l-2.1,3-.4,5.4-.9,2.9-1,2.9-.3,2.9,1.1,1.7s1,1.2,1.2,1.2.6,1.1.6,1.1l.9,2.8s-.5,1.7-.5,1.9a22.1,22.1,0,0,0,1.2,2.7c0,.1,1.9,2.2,2,2.6a14.9,14.9,0,0,1,.5,2.1l-1.5,1-1.8-1.6-1.6-.6-.9.9a5,5,0,0,1-1.5,1.3l-1.7.3-2-.6s-.7-.3-1,.3-.1,1-.4,1.5l-1,.9h-1l.8,2.4a1.8,1.8,0,0,1,.2,1.8,1.9,1.9,0,0,1-1.2.9l-2.5-.4-2.1-.2-1,.6.3,1.3v3.2l.4,1.1,1.2.4h1.1l.9,1.4a10.9,10.9,0,0,1,.2,1.5c0,.4-.1,1.3-.1,1.6s-.2,1.1.1,1.3,0,.3.8.3h2.8a7,7,0,0,1,.7,1.1l.5,1h.9a2,2,0,0,1,1.2,0l1.3.3h2.8l1.9-2.1s1-2.2,1.5-2.4,1.3-1.9,1.7-2.1a2.4,2.4,0,0,0,.9-.9l.7-2,1.8-1.2a6.1,6.1,0,0,0,1.7-.4,22.6,22.6,0,0,0,1.8-1.5,26.9,26.9,0,0,1,1-3.2,18.9,18.9,0,0,0,1.2-2.1l2.6-1.4a11.2,11.2,0,0,0,1.3-2.2s-.6-1.6,0-2.2a4.7,4.7,0,0,1,2.4-1.5,5.9,5.9,0,0,0,2.4-.9c1.1-.6,1.3-.7,1.5-1.2a9.5,9.5,0,0,0,.1-2.4c0-.6-.8-1.3-.6-1.6l.7-.8,2.5-3.6,3.2.8a12.8,12.8,0,0,0,1.5,1.2l1.9.4s1.4,1.2,1.4,1.6a24.3,24.3,0,0,1,0,2.7,11.8,11.8,0,0,1-.8,2.3l-1,.8s-.3,2.4-.3,3.1a21.6,21.6,0,0,0,.8,2.9c.2,1,.5,2.3.6,3.1s.2,2,.3,2.5.8,2.5,1.1,3.2.6,1.9.7,2.2a6.1,6.1,0,0,0,1.3.9l2.4,1c.3.1,1.6-.3,2.4-.2a14.1,14.1,0,0,1,2.7.6l1.6,2.9s1-.4,1.3.1l1.1,1.6a2.8,2.8,0,0,0,1.8.7,5.4,5.4,0,0,0,2.7-.8,7.2,7.2,0,0,1,2.6-.8h2.9V274l1.9,2,1.6,2.1,1.6,1.4v2.2s.7,1.7.9,1.7a4.3,4.3,0,0,1,2.3,1.1,20.8,20.8,0,0,0,1.6,2.1,8,8,0,0,1,1.7.8l1.5,1.6s1.7,1.1,2,.8a13.7,13.7,0,0,0,1-1.4s0-1.1.5-1.4l1.5-.8s1-.6,1.1-1-.2-.9,0-1.6.6-1.8,1-1.8,1.2,1,1.2,1,.6.7,1,.3,0-1.4.3-1.4a14.2,14.2,0,0,1,2.1.6l3.7,2.9a4.9,4.9,0,0,1,1.9,1.1c.3.6.9,1.3,1.1,1.8a6.1,6.1,0,0,0,.7,1.4,2.1,2.1,0,0,0,1.2,1,2.2,2.2,0,0,1,.8,1.3,2.5,2.5,0,0,0,.1,1.2,1.4,1.4,0,0,0,.9.9,2.4,2.4,0,0,0,.9,0l.8-.7s1.5,0,1.6.2l1.7,1.9-1.7-1.9c-.1-.2-1.6-.2-1.6-.2l-.8.7a2.4,2.4,0,0,1-.9,0,1.4,1.4,0,0,1-.9-.9,2.5,2.5,0,0,1-.1-1.2,2.2,2.2,0,0,0-.8-1.3,2.1,2.1,0,0,1-1.2-1,6.1,6.1,0,0,1-.7-1.4c-.2-.5-.8-1.2-1.1-1.8a4.9,4.9,0,0,0-1.9-1.1l-3.7-2.9a14.2,14.2,0,0,0-2.1-.6c-.3,0,0,.9-.3,1.4s-1-.3-1-.3-.8-1-1.2-1-.9,1.2-1,1.8.1,1.1,0,1.6-1.1,1-1.1,1l-1.5.8c-.5.3-.5,1.4-.5,1.4a13.7,13.7,0,0,1-1,1.4c-.3.3-2-.8-2-.8l-1.5-1.6a8,8,0,0,0-1.7-.8,20.8,20.8,0,0,1-1.6-2.1,4.3,4.3,0,0,0-2.3-1.1c-.2,0-.9-1.7-.9-1.7v-2.2l-1.6-1.4L148,276l-1.9-2v-2.9h-2.9a7.2,7.2,0,0,0-2.6.8,5.4,5.4,0,0,1-2.7.8,2.8,2.8,0,0,1-1.8-.7l-1.1-1.6c-.3-.5-1.3-.1-1.3-.1l-1.6-2.9a14.1,14.1,0,0,0-2.7-.6c-.8-.1-2.1.3-2.4.2l-2.4-1a6.1,6.1,0,0,1-1.3-.9c-.1-.3-.4-1.5-.7-2.2s-.9-2.7-1.1-3.2-.1-1.7-.3-2.5-.4-2.1-.6-3.1a21.6,21.6,0,0,1-.8-2.9c0-.7.3-3.1.3-3.1l1-.8a11.8,11.8,0,0,0,.8-2.3,24.3,24.3,0,0,0,0-2.7c0-.4-1.4-1.6-1.4-1.6l-1.9-.4a12.8,12.8,0,0,1-1.5-1.2l-3.2-.8-2.5,3.6-.7.8c-.2.3.6,1,.6,1.6a9.5,9.5,0,0,1-.1,2.4c-.2.5-.4.6-1.5,1.2a5.9,5.9,0,0,1-2.4.9,4.7,4.7,0,0,0-2.4,1.5c-.6.6,0,2.2,0,2.2a11.2,11.2,0,0,1-1.3,2.2l-2.6,1.4a18.9,18.9,0,0,1-1.2,2.1,26.9,26.9,0,0,0-1,3.2,22.6,22.6,0,0,1-1.8,1.5,6.1,6.1,0,0,1-1.7.4l-1.8,1.2-.7,2a2.4,2.4,0,0,1-.9.9c-.4.2-1.3,1.8-1.7,2.1s-1.5,2.4-1.5,2.4L86.8,274H84l-2.2,1.6a21.8,21.8,0,0,1-1.8,3.1,3.1,3.1,0,0,0-.7,1.2,8.5,8.5,0,0,1,1.1,1.6,10.9,10.9,0,0,0,.2,1.5l1.1-1s.9.6.9,1.1a5.4,5.4,0,0,0,.2,1.1l2.2,1.5c.2-.3.6-.1,1-.2h2c.4,0,.7.6.7.6v1.7l.9.6.8,1.1,2.2,1.2c.2.1.6-.4,1.3-.5a4.7,4.7,0,0,1,2.2.5l1.3.7a5.7,5.7,0,0,0,1.1,1.1,13.6,13.6,0,0,0,2.8.1l3.3.5.2,2,1.5,1.2-.3,1.3.8,2.1,1.2-.3.8.3,1.6.4a5.4,5.4,0,0,1,1.3.6l.3,4.8h.7l1.6.7h1.7l2.9.7,1.1,1.7.4,2-.4,1.3s.2.7.4,1.2a1.8,1.8,0,0,0,.7.9v1h1.9l1.3-.3a2.6,2.6,0,0,0,1.1-.4l.7.8c.1.3,1.1-.2,1.1-.2l.5-.6,2,1.1V317h.9s.8,1.1,1.1,1.1a8.1,8.1,0,0,0,1.1-.3,5.9,5.9,0,0,1,1.6,1c.2.2,1.3,0,1.3,0l.8,1.8c0,.3,1.4.3,1.4.3l3.3,1.4-3.3-1.4s-1.4,0-1.4-.3l-.8-1.8s-1.1.2-1.3,0a5.9,5.9,0,0,0-1.6-1,8.1,8.1,0,0,1-1.1.3c-.3,0-1.1-1.1-1.1-1.1h-.9v-1.7l-2-1.1-.5.6s-1,.5-1.1.2l-.7-.8a2.6,2.6,0,0,1-1.1.4l-1.3.3h-1.9v-1a1.8,1.8,0,0,1-.7-.9c-.2-.5-.4-1.2-.4-1.2l.4-1.3-.4-2-1.1-1.7-2.9-.7h-1.7l-1.6-.7h-.7l-.3-4.8a5.4,5.4,0,0,0-1.3-.6l-1.6-.4-.8-.3-1.2.3-.8-2.1.3-1.3-1.5-1.2-.2-2-3.3-.5a13.6,13.6,0,0,1-2.8-.1,5.7,5.7,0,0,1-1.1-1.1l-1.3-.7a4.7,4.7,0,0,0-2.2-.5c-.7.1-1.1.6-1.3.5l-2.2-1.2-.8-1.1-.9-.6V286s-.3-.6-.7-.6H86c-.4.1-.8-.1-1,.2s.4.5-.5.8l-1.4.5-1.8-.3c-.3.1.1.5-.9.6s-.7.3-1.7.1l-2.7-.6-1.3-.4s-1-1.1-1.2-1-.4-.5-.4-.5v-5.8L71,277.2l-1.5-.8-1.2,1c-.2.2,0,1.9,0,1.9a6.2,6.2,0,0,1-1.4.4H65.4c-.2.1-.1.3-.9.6l-2.3.7-2.2,1-.8,1.8,1.2,3.4L61,289l-.6,1.3-3,3.5-.3,2,.7.6,1.4,1.4.2,1.5.2,4,.4.2.6.6a4.7,4.7,0,0,1,2.1.5c.9.4.6.7,1.5,1.3s.9.1,1.6-.1a2.4,2.4,0,0,1,1.7.2c.5.4.5.7.8.4a.7.7,0,0,0,0-1c-.3-.1-.8-.4-.3-.5a4.2,4.2,0,0,1,1.4.1l1.3.4c.1.2.4.2.8.5s-.3.6.6.8a1.3,1.3,0,0,0,1.6-.6c.4-.4.2-1,.8-.6a4.3,4.3,0,0,0,1.2.6l.5-.5s-.2-1.2-.2-1.5-.5-.9.2-1.5.9-.9,1.2-.8.6.3.9.2a.9.9,0,0,0,.8-.4.9.9,0,0,1,.7-.4,2.1,2.1,0,0,0,1,.9c.7.3.9,0,1.6.1s.9.2,1.1.4l.5.6c.4.3.5.2.9.3s.6.1.7.3-.3.5.2.5.4-.3.8,0a2.9,2.9,0,0,1,.7,1.6c0,.5-.3.7.1,1.3a2.4,2.4,0,0,0,.9,1.1c.4.2.8.1,1.2.3s.9.1,1,.5.3.4.4.7-.1.5.5.7a3.1,3.1,0,0,0,2.5.6l2-.4c.7-.1.9-.6,1.3,0s.2.6.8,1a2.9,2.9,0,0,0,1.3.8c.7.3.5-.2,1.5.6a4.5,4.5,0,0,0,1.9.8l1.6.6c.5.3.5.7,1.2.1a6.6,6.6,0,0,0,1-1.1c.3-.3.3-.6.9-.3l.9.3c.2.2,0,.5.8.6s.7-.4,1.1.1.5.2.8.7a4.3,4.3,0,0,0,.7,1c.3.3.5-.4,1.1.6s1.2.2,1.6.8.5.9,1.1.7.7-1.2,1.2-1.3.6.2,1.2.7a1.9,1.9,0,0,1,.6,1.8c.1.6-.3.6.3,1.3s.9.8,1.3.8h.7c.2-.2.5-.4.8,0l.7.8.5.7a1.7,1.7,0,0,0,.5,1.1c.6.4.4.1,1.2.5s1,.2,1.4.8l.8.9c.3.4.7.3.6.7a1.4,1.4,0,0,0,0,.9l.5.5c0,.1-.3.2-.2.5a3.6,3.6,0,0,0,.9.9l-.4.4-.6.3s-.2.2,0,.6a2.3,2.3,0,0,0,.6.7,1.5,1.5,0,0,1,1.2.9c.3.8.2.9.7.9s1.1-.2.8.2,0,.8-.6.8-.6-.6-1-.3a1.7,1.7,0,0,0-.3.9l.7.7c.4.4.7.6.7.9a9.2,9.2,0,0,1,.3.9c-.1.2-.2.6.4.6s.5-.3,1.4,0,1.1.2,1.4.5.7.7,1,.7.5-.1.6-.5-.4-.8.1-.9.7-.3.8.1a1.9,1.9,0,0,1,0,1.1,5.4,5.4,0,0,0-.1.8c0,.2.2-.4,1.1,0s-.2.7.6.8,1-.3,1.2-.2.6-.2.7.4a9.7,9.7,0,0,0,.2,1.2c0,.4-1.2.4.3,1.1s1.7.9,1.9.7.3-.9.3-.9a.7.7,0,0,1,.9-.1c.6.4.7.4.8.6s.2.6,1.1.5a1.4,1.4,0,0,1,1.6,1.1c.3.8-.5.7.2,1.3s1,.4,1.1.9a5.5,5.5,0,0,0,.2,1.2l.4.6.8.6s.3,0,.4.6a11.3,11.3,0,0,0,.2,1.4c0,.3.2.5-.1.9s-.4,0-.7.6a11.2,11.2,0,0,0-.5,1.3c-.1.4-.9.5-.2,1.2s1,.1,1.8,1.1.8,1.2,1.6,1a2,2,0,0,1,1.3-.1c.5.2,1,.4,1.4.1s.2-.4.7-.5.8.4.8-.2.1-.8.4-.6.9.1.9.5-.4.6-.1,1,.7.3.7.7a7.7,7.7,0,0,0,.1,1s1.6-.8,1.4.7a4.1,4.1,0,0,1-.4,1.7c-.3.7-.6.3-.2.9l.9,1.2s.7.5.6.9a1.5,1.5,0,0,1-.3.7s-1.2-.1-1.2.2a3.5,3.5,0,0,0,.1.7,1.4,1.4,0,0,1-.2.7c-.3.3-.9.2-1.1.3s-.2,0-.2.2-.1.6.7,1.5.4.5.8,1.1.5.8.8.9,0,.8.7.2a1.5,1.5,0,0,1,1.8-.2c.4.1.4-.1.6.1s.7.8.7.8-.4.7-.1.9.7.3.7.6-.5.6.1.7a4.4,4.4,0,0,0,1.6-.6l1.1-.7s-.2-1.1.5-.5,1,.4,1,.4.4-.7.5-.7.6,0,.7.2a3.5,3.5,0,0,0,.1.7s-.5.6.1.5.8-.2.8-.5.1,0,.2-.7.1-.8.1-.8l.6-.3,1.5,1.1c.7.5,1,.6,1.7.2a3.2,3.2,0,0,1,1.3-.4,2,2,0,0,1,.9.4c.3.2-.8-.2.6.6s1.5.8,2,.6a3.1,3.1,0,0,1,1.2-.4,3.1,3.1,0,0,0,1.1-.2,1.1,1.1,0,0,0,.4-.6s0-.5.4-.1-.3,1.1.4.8,1,.1,1-.7a2.6,2.6,0,0,1,1.4-2.2c.7-.3.6-.2,1,0s.7.7,1.3.5.9-.1,1-.9.4-.9.9-.9,1.1.6,1.2-.5-.2-1.3.2-1.8.2-.3.9-.7.7-.2,1.1-.8.6-.7.8-.7-.2.3.1.8-.6.8,0,1.3.3.7.8.5.2-.6.8-.8.5-.5.8-.1.3,0,.5.5.3.6.8.6.9-.3,1.4.3.3.8.4,1.8.4,1.1.7,1a.9.9,0,0,0,.5-1.1c-.1-.6-.5-.9.2-1s.8.2,1,.7a2.7,2.7,0,0,1,.5,1.4c-.1.4-.6.6,0,1s.6.8,1.1.4a3.6,3.6,0,0,0,1.1-1c.3-.4.1-.7.7-.6l1,.3c.3.1-.1.2.9.3s1.5.3,1.6-.4-.1-.7.4-1.4.7-1.1,1.4-.8.4.5.9.6.8-.1.8-.3a8.1,8.1,0,0,0-.2-.9c0-.5-.6-.9.1-1.1s1.1-.2,1.2.2-.1.9.4,1a1.3,1.3,0,0,0,1-.4s-.1-.6.6-.1.8.4.9.8,0,.4.3.6a7,7,0,0,0,1.2.3c.2.1-.1-.3.4.2a4.5,4.5,0,0,0,.9.6c.9.6.7.3,1.4.7s.1.7.4,1,.4,0,.7,1.2.7,1.5,1,1.4a1.2,1.2,0,0,0,.5-.5c0-.2-.1-.6-.1-1.1s-.1-.7.3-.7.8.1.8.5-.2.9.4,1,.7-.2,1.1-.1.5.2.5.6-.2.4.2.7.8-.2,1.1-.2.2-.4.8-.4,1-.3,1.2,0a1.7,1.7,0,0,1-.1.9,4.1,4.1,0,0,0-1.2.4c-.1.2-.5.5-.2.8a1.9,1.9,0,0,0,1.1.5l.7-.8c.3-.3.1-.5.5-.5s.8-.3.8,0,.1.8.2,1.5a1.1,1.1,0,0,0,.7.8s.9,0,1.1.3-.6.8.3,1.1,1,.2,1.1-.2-.2-.7.5-.7.7.7.7,1.9-1.2,2.4-1.9,3.6l-14.4,22.7,1,.4c1,.4.3,1.3,1.1,1.2s.6-.6,1.4-.5,1,.2,1.1.5,0,.8.7.7.9.3,1.2-.1l.8-1.1a1.3,1.3,0,0,1,.7-.8l1.6-.4c.4,0,.4-.3,1.3.2s1,.2,1.4.9.8.9.9,1.4a2.4,2.4,0,0,0,.9,1.6c.6.6,1.1,1.1,1.1,1.5a1.8,1.8,0,0,0,.3,1.1,2.5,2.5,0,0,1,1.1.7,6.9,6.9,0,0,1,1.5,1.4,4.9,4.9,0,0,1,.4,1c.1.2-.1.5.3.4s1.3-5.2,1.3-5.2l11.8-64.4s1.1-1.2,1.1-1.6,0,.1-.5-1.2-.9-.6-.6-2a9.4,9.4,0,0,1,.6-2l.2-1-.4-.8s-.1-.1-.1-.6a2.4,2.4,0,0,0-.3-.8s-2-.8-2.1-1.7.2-1.2-.3-1.9a3.4,3.4,0,0,0-1.4-1.5c-.6-.4-1-.7-1.1-1.4a5,5,0,0,1,.3-1.4l.9-.7v-1.4l-1.4-.8c0-.1.4-1,.4-1.1s.9-.1,0-.7l-1.6-1-1.4-1.1c-.4-.3-.2-.4-1.1-.6s-.8-.4-1.3-.7a2.6,2.6,0,0,0-1-.5h-1l-.6-.8a1.6,1.6,0,0,0-.6-1.2c-.6-.3-.8-.1-1.2-.6a2.4,2.4,0,0,1-.4-1.2c.1-.4.3-.6,0-.8l-.6-.4c-.1-.1,0-16.4,0-16.4a6.9,6.9,0,0,0,1.3-.5c.1-.1.1-.5.4-.6h.8c.3.1.7-.3.7-.3s0-.3.5-.3h1.5c.5,0,.8.3,1.4.1s.3.1.7-.4a2.2,2.2,0,0,0,.6-1.4c0-.4-.2-.7.3-.8s1.1,0,1.2.3,0,.7.6,1,.5.5,1,.1a2.9,2.9,0,0,0,.7-1.2c.2-.5,0-.7.4-1s.9-.6,1.3-.6.2-.2.7.1l1.3.9c.8.7,1.1.4,1.1.9s-.3.7,0,1.2.6.9.8.7a4.9,4.9,0,0,0,.4-1s-.2-.6.3-.6.5-.4.7.1.3.2.2.7.2.9.4.9a2.8,2.8,0,0,0,1.3-.7c.2-.3-.1-.6.4-.9s.5-.6.8-.3.3.6.5.6.3-.1.5-.3.1-.4-.2-.8l-.9-1c-.3-.3-.7-.7-.4-.9a.5.5,0,0,1,.5-.1h.2l-.5-1.2c0-.1-.3-1,.2-1.1s.8,0,.8-.4,0,.1-.8-.6-1.2-.7-.6-.9,1-.3.8-.6-.5-.2-.8-.4a1,1,0,0,1-.5-.6s0-1.3-.6-1.5-.6.4-1.2-.1-.3-.8-.8-.8-.7-.4-1.1.1-.1.7-.7.9-.8.4-1.1,0-.1-.7-.6-.8h-1l-.8.3c-.3.2-.1.5-.9.2s-.3-.4-.8-.6a1.7,1.7,0,0,0-1.1-.3c-.4.1,0,.3-.7.2s-.7,0-1-.2-.2-.5-.6-.3l-.7.5c-.3.3-.3.6-.7.7l-.9-.2-.2-.4V269.6l1.7-.4c.2,0,.7-.4.7-.4a4,4,0,0,1,1.1,0l.7.2a1.4,1.4,0,0,0,1.1-.3c.5-.5.9-1.2,1.3-1.3s1-.2,1.2.1,0,.6.6.7.7-.5,1.3-.3a4.3,4.3,0,0,1,1.3.9,2,2,0,0,0,.9.5h29.6l.3-.5a1.4,1.4,0,0,1-.4-.4c-.1-.1,0-.7-.2-.7h-.7s-.2.5-.4.5l-.7-.3a1.7,1.7,0,0,1,.2-.5c.2-.1.3,0,.3-.3s.1-.5-.2-.5h-.7c-.1,0-.2.1-.2-.3s-.4-.6,0-.7l.9-.4.2-.4s-.1-.7-.1-.9.3-.7.6-.8a1.6,1.6,0,0,1,.9-.3c.2,0,.7-.1.8.2s0,.3.3.5l.8.2s.5-.1.6.1.7.4.9,1a9.3,9.3,0,0,1,.4,1.3c.2.3.2.4,1,.8l1.5.8c.3.3.5.3.6.5a1.3,1.3,0,0,0,1,.2l.4-.3-.3-2.1s.1-1.1.3-1.2a6.7,6.7,0,0,1,1.5-.6h1.2l.7-.6,1.1-.4a4.6,4.6,0,0,0,1-.5l.9-.7.9-1.1a4.7,4.7,0,0,1,1-1.1,9.1,9.1,0,0,0,1.2-1.7l1.3-.3a3.7,3.7,0,0,1,1.1.4l.9.6c.1.2.3.1.3,1a6.4,6.4,0,0,1,0,1.4l-.4,1.7s.2.9.5,1.1a3.9,3.9,0,0,1,.5,1.4,5.5,5.5,0,0,0,.1.9l1,.8,1.6.8c.4.3.7.2.9.8l.2,1.1s1,3.4,1,3.5a14.1,14.1,0,0,1,1,1.8,8.7,8.7,0,0,1,.5,1.6l-.5,1.6a14.9,14.9,0,0,0-.4,1.8,3.7,3.7,0,0,0,.2,1.2,4.3,4.3,0,0,0,.4,1.4,3.1,3.1,0,0,0,.5.9l5-1.6v-.4S315.4,281.5,315.3,281.3ZM124.1,217.1a.7.7,0,0,0-.5.5c0,.4-.2.6-1,1.1a10.1,10.1,0,0,0-1.7,1.5l-1.2.5-.8.8v1c0,.2-.4,1-.7,1l-1.1.4c-.5.1-.3.7-.3.7a3.9,3.9,0,0,1,.3,1.2v.8l-1.3,1a3.5,3.5,0,0,0-1.2,1.7,2.5,2.5,0,0,1-1.2,1.1,8.7,8.7,0,0,1-2.7.3c-1.1,0-.6-.9-.6-.9a12.7,12.7,0,0,0,1.2-2,1.8,1.8,0,0,0-.2-1.1,1.4,1.4,0,0,0-1,0c-.7.1-.9,0-1.3.2s-.6.8-.9.8-.4-.4-.6-.7-.9-.2-1-.3,0,1.3,0,1.3a3.2,3.2,0,0,0-1.1-.4l-1.5-.3-1.9-.6a3.5,3.5,0,0,0-1.4.6c-.5.4-.3,1.3-.5,1.4s-.6,1.1-1.4,1.5a6,6,0,0,0-1.3,1.1v1.6a3.3,3.3,0,0,1-1,1.1l-2.1.9-2.4,1.8-2.3,1.4h0l2.3-1.4,2.4-1.8,2.1-.9a3.3,3.3,0,0,0,1-1.1v-1.6a6,6,0,0,1,1.3-1.1c.8-.4,1.1-1.4,1.4-1.5s0-1,.5-1.4a3.5,3.5,0,0,1,1.4-.6l1.9.6,1.5.3a3.2,3.2,0,0,1,1.1.4s-.1-1.4,0-1.3.8-.1,1,.3.3.8.6.7.5-.6.9-.8.6-.1,1.3-.2a1.4,1.4,0,0,1,1,0,1.8,1.8,0,0,1,.2,1.1,12.7,12.7,0,0,1-1.2,2s-.5.9.6.9a8.7,8.7,0,0,0,2.7-.3,2.5,2.5,0,0,0,1.2-1.1,3.5,3.5,0,0,1,1.2-1.7l1.3-1v-.8a3.9,3.9,0,0,0-.3-1.2s-.2-.6.3-.7l1.1-.4c.3,0,.7-.8.7-1v-1l.8-.8,1.2-.5a10.1,10.1,0,0,1,1.7-1.5c.8-.5,1-.7,1-1.1a.7.7,0,0,1,.5-.5l.9.4Z" style="fill: none;stroke: #fff;stroke-miterlimit: 10;stroke-width: 0.565173476353961px"/>
      <path d="M59.2,297.8l-1.4-1.4-.8-.6.4-2,3-3.5L61,289l-.6-1.9-1.2-3.4.8-1.8,2.2-1,2.3-.7c.8-.3.7-.5.9-.6H66l.2-.9a23.5,23.5,0,0,1-.7-2.3.6.6,0,0,0-.6-.5s0-.6.3-.8l1-1a2.4,2.4,0,0,0,.4-1.3,12.7,12.7,0,0,1-.4-1.4c-.1-.3-1.9,0-1.9,0l-.6-1.5a6.2,6.2,0,0,0-1.7-1.2c-.6-.2-.6.6-.8.8s-.9.8-1.2.8H58.2l-2.7.2a12.3,12.3,0,0,1-2.2-.6c-.2-.2.2-1.2.2-1.7a7.8,7.8,0,0,1,.2-1.6c.2-.3,1.9-.3,1.9-.3l1.4-.9a1.9,1.9,0,0,0,0-1.1,8.3,8.3,0,0,1,0-1.6l-1.6-.7a9.4,9.4,0,0,1-1.7-1.1,9,9,0,0,1-.2-1.8,11.8,11.8,0,0,0-.7-2c-.1-.2-1.2-.4-1.6-.4l-1.8.3a4.7,4.7,0,0,1-1.9.8c-.5,0-.7-.5-1.3-.7l-1.9-.4c-.7-.1-1.2-1.2-1.2-1.2l-.5-2-2.2-3-1.9-2.1-2-2.2,2,2.2,1.9,2.1,2.2,3,.5,2s.5,1.1,1.2,1.2l1.9.4c.6.2.8.7,1.3.7a4.7,4.7,0,0,0,1.9-.8l1.8-.3c.4,0,1.5.2,1.6.4a11.8,11.8,0,0,1,.7,2,9,9,0,0,0,.2,1.8,9.4,9.4,0,0,0,1.7,1.1l1.6.7a8.3,8.3,0,0,0,0,1.6,1.9,1.9,0,0,1,0,1.1l-1.4.9s-1.7,0-1.9.3a7.8,7.8,0,0,0-.2,1.6c0,.5-.4,1.5-.2,1.7a12.3,12.3,0,0,0,2.2.6l2.7-.2H60c.3,0,1-.6,1.2-.8s.2-1,.8-.8a6.2,6.2,0,0,1,1.7,1.2l.6,1.5s1.8-.3,1.9,0a12.7,12.7,0,0,0,.4,1.4,2.4,2.4,0,0,1-.4,1.3l-1,1c-.3.2-.3.8-.3.8a.6.6,0,0,1,.6.5,23.5,23.5,0,0,0,.7,2.3l-.2.9h.9a6.2,6.2,0,0,0,1.4-.4s-.2-1.7,0-1.9l1.2-1,1.5.8,2.1,1.9v5.8s.3.6.4.5,1.2,1,1.2,1l1.3.4,2.7.6c1,.2.8,0,1.7-.1s.6-.5.9-.6l1.8.3,1.4-.5c.9-.3.4-.5.5-.8l-2.2-1.5a5.4,5.4,0,0,1-.2-1.1c0-.5-.9-1.1-.9-1.1l-1.1,1a10.9,10.9,0,0,1-.2-1.5,8.5,8.5,0,0,0-1.1-1.6,3.1,3.1,0,0,1,.7-1.2,21.8,21.8,0,0,0,1.8-3.1L84,274l-1.3-.3a2,2,0,0,0-1.2,0h-.9l-.5-1a7,7,0,0,0-.7-1.1H76.6c-.8,0-.5-.2-.8-.3s-.1-.9-.1-1.3.1-1.2.1-1.6a10.9,10.9,0,0,0-.2-1.5l-.9-1.4H73.6l-1.2-.4-.4-1.1v-3.2l-.3-1.3,1-.6,2.1.2,2.5.4a1.9,1.9,0,0,0,1.2-.9,1.8,1.8,0,0,0-.2-1.8l-.8-2.4h1l1-.9c.3-.5.1-.9.4-1.5s1-.3,1-.3l2,.6,1.7-.3a5,5,0,0,0,1.5-1.3l.9-.9,1.6.6,1.8,1.6,1.5-1a14.9,14.9,0,0,0-.5-2.1c-.1-.4-2-2.5-2-2.6a22.1,22.1,0,0,1-1.2-2.7c0-.2.5-1.9.5-1.9l-.9-2.8s-.4-1-.6-1.1-1.2-1.2-1.2-1.2l-1.1-1.7.3-2.9-1.9-.4-2.1-.9-2.3-.3a11,11,0,0,1-2.3-.9l-1.5-.2V231c0,.2-.9,2-.9,2.3s-.9,1.1-.9,1.1a7.1,7.1,0,0,1-1.5.7l-2.4-.2a2.8,2.8,0,0,0-1.6.8l-1.8.8H64.1a8.3,8.3,0,0,1-1.5-1.2c-.6-.7-2.5,0-2.5,0H58.3l-1.5-.4a15.8,15.8,0,0,0-1.3-1.3l-1.8-.4c-.2,0-1-1.1-1-1.1l-.7-2.5-1.6-.9a1.8,1.8,0,0,0-.7.5,5.9,5.9,0,0,1-.8.8c-.2.1-.6.6-.2.9s.6-.4,1-.2a1.9,1.9,0,0,1,.4,1.1c0,.2-1.3.5-1.3.5l-1,.4a.8.8,0,0,1-.4.6l-.8.8a1.1,1.1,0,0,1-.9.7,2.2,2.2,0,0,0-.9.7A3.6,3.6,0,0,0,44,237h.5s.5-.5.8-.3l.5.5-.3.8s-.7-.2-.6.2-.8-.1-1,.3-.5.5-.2,1,.4.5.4.9a1.2,1.2,0,0,1-.5.8,1.9,1.9,0,0,1-1.2.2.3.3,0,0,0-.3.5c.2.2.8.3.9.5s.6.5.3.7h-.9s-.6-.6-1-.6a.8.8,0,0,0-.7.3s.7,1.3.6,1.6a1.5,1.5,0,0,1-.5.7s-.7-.4-.7-.9,1.3-1.4-.1-1.1-1.5.6-1.6.9a1.4,1.4,0,0,0-.1.9c0,.4.4.9,0,.9s-.7.4-.9-.1.1-.8-.3-1-.5-.4-.7.1.4,1.4-.2,1.9-.7.8-1.3,1-1.2.1-1.1-.4.2-.7,0-1.3-.3-1-1-.8-.7.4-1.3.5-.9-.4-.8.4.4.5,0,1.2-.7.9-.9.9.1-.6-.5-.6-.7-.1-1,.4a2.1,2.1,0,0,0-.3,1.3s.8.2.3.7-.5.9-.6,0,.4-1.1-.2-1.3-1.2.1-1-.3.6-.7.2-.9l-.8-.2s-.5,1.8-1.5,2.1-1.6-.2-2,.4-.4.6-.3,1.1.5.9-.1,1.2-.6.4-.7.6-.7-.7-.3.8.5.9.8,1.8-.5.5.3,1a1.7,1.7,0,0,1,.8,1.8c0,.5,0,2.2-.7,2.4s-1.3-.6-2-.4-1.4.2-1,.7.3.7.8.8.7-.5,1.1.1.9.8.7,1.3-.8.3-.3.8.3.3,1,.4.8.4.8.7,0,1.8-.7,2.3-.7,1.1-1.3.3-.8-1.1-1.4-.8-.2.7-1,.5l-1.2-.5c-1.2-.6-.3-.7-1.7-.5s-1.3.6-1.9,1.2a21.9,21.9,0,0,1-2.2,2.4c-.9.8-1.2.3-1.2,1.2s-.7,1.1.7,2.1.1.9,1.6.9,1.5-.3,1.6.2.3,1.2.4,1.6.3.5.7.8,1,.2,1.7,1.1.5,1.1,1.4,1.9.8.2,1.4.7,1.7,2,2.4,2.1,1.6-.1,1.8.1.3.9,1.2,1.6,1,.3,1.5,1.2a1.5,1.5,0,0,0,1.7.7c.6,0,1.1-.1,1.3.3s3.2,2.7,4.4,3.6.8,1.6,2.3,1.9l2.5.5a2.8,2.8,0,0,0,1.3-.3l1.3-.7a5.5,5.5,0,0,1,1.8-.2c.4,0,.7-.5,1.3-.1s1.8.1,1.1.7-.5.8-.9,1.2a3.1,3.1,0,0,0-.4,1.2l.9,1a1.7,1.7,0,0,0,1.9,1.5c1.9-.1,2.7-.4,2.8.2s.5.7.1,1.1l-1.1.6s-.5.1-.1.6.7.5.9.9l.4.9s-.4.1-.2.9.5,1.1.7,1.1h1.3l1.3-.5s1,.1,1.3.5.1.5.6.6a3.5,3.5,0,0,0,1.3-.1l1.2-.3c.4-.1.7-.4,1.2-.2l.3.2-.2-4Z" style="fill: none;stroke: #fff;stroke-miterlimit: 10;stroke-width: 0.565173476353961px"/>
      <path d="M94.3,209.4l-1.3-.2s-.6-2.7-.7-2.8a14.2,14.2,0,0,0-1.1-1.8,9.8,9.8,0,0,1-.6-2c.1-.6-.6-4.8-.6-4.9a5.4,5.4,0,0,0,.3-1l1-.4.8-.2c.5-.2.7-.4,1-.4l.6-.2a1.6,1.6,0,0,0,.6-.5v-.4a11.3,11.3,0,0,1,2.6,0,2.3,2.3,0,0,0,1.1.4h1.1l.8-.2h2.2" style="fill: none;stroke: #fff;stroke-miterlimit: 10;stroke-width: 0.565173476353961px"/>
      <path d="M120.7,168.1h-1.3l-.3.8-.5.7-1.2.2-1-.5a1.4,1.4,0,0,0-1.1-.4h-2.7c-.1.1-.6.4-.7.6s-.4.8-.8.9h-1l-.6.5-.2,1.3a4.5,4.5,0,0,1-.5,1c-.1.2-.9.6-.9.6a1,1,0,0,0-.8,0,3.3,3.3,0,0,0-.6.6c-.2.2.8.4-.7.5a3.6,3.6,0,0,1-1.8,0l-.4-1.3-.3-1-.7-.4s-.6-.3-.3-.6l.4-.6a.8.8,0,0,0-.2-.5l-.8-.4c-.1-.1-.9.2-1.1.3s-.6.2-.6.2l-.9-.4a2.8,2.8,0,0,0-.6-1,3.1,3.1,0,0,0-1-.5c-.2,0-.5.3-.5.3s-.5.5-.5.7V171a12.8,12.8,0,0,0,.1,1.8,1.9,1.9,0,0,1,.3,1.2.5.5,0,0,1-.5.3h-.7l-.9-.3a2.1,2.1,0,0,0-1.1-.3l-1.2.2-1,.4-.9.7c-.3.2-.4,1-.4,1.3s0,1,.2,1.2,0,.3.4.3l.8.2c.2,0,.5-.4.8-.5a2.5,2.5,0,0,1,1.2-.2,3.1,3.1,0,0,1,.9.5s.6.6.6.8a1.4,1.4,0,0,1-.3.9c-.3.2-.2.4-.6.5s-.5.4-1.1.2a5.7,5.7,0,0,0-1.9-.5c0,.1-.2.1-.1.7a10.1,10.1,0,0,0,.4,2c0,.3.1.4-.1.7l-.3.6-.4.4c-.2.3-.4.3-1,.6s-.5.6-.7.9-.6.3-.5.8-.2.9.3,1.2-.7.2.7.8,1.4.5,1.6.2.2-.1.3-.6.2-1.4.2-1.4a2.6,2.6,0,0,1,.9-.4c.3.1.7-.1.8.3s.3,1.8.4,2,.6.6.6.6h3.3c.8.1,1.2-.2,1.8,0l.9.5.6.6a1.6,1.6,0,0,0,.4.7,4.4,4.4,0,0,0,.8.7" style="fill: none;stroke: #fff;stroke-miterlimit: 10;stroke-width: 0.565173476353961px"/>
      <path d="M50.8,210.3v-1.6a2.9,2.9,0,0,1,1-.3c.3,0,.7-.7.8-1s.5-.3.5-.3a1.1,1.1,0,0,1,.7.3c.3.4-.2.5.3.4s.5-.5.6-.7.1-.7.4-.7.6.6.7.8,0,.7.3.7-.5.2.5.1l1.3-.2a1.1,1.1,0,0,1,1.2.2,3,3,0,0,1,.8.8c.5.4,0,.6.8.6s-.2.1.8.1a4.9,4.9,0,0,0,1.5-.4,1.1,1.1,0,0,1,1.1.1,2.8,2.8,0,0,1,.9,1.1c.1,0,.1.6.3.7a.9.9,0,0,1,.9,0l1.2.8c.3.2.1.4.7.4a3,3,0,0,0,1.4-.2l.6-.7,1.3-.3c1-.2.8.8,1.5,0s.5-1.3,1-1.6a8.5,8.5,0,0,1,1.3-.6c.9-.4,1.4-.3,1.2-.8l-.5-.8-1.8-.8v-1a6.5,6.5,0,0,0-.5-1.5c-.2-.2-.6.5-.6-.5s-.6-1.3,0-1.7a2.6,2.6,0,0,1,1.3-.4l.6-.4a10.6,10.6,0,0,1,.1-1.5c.1-.5,1.2-2.8,1.3-3.2a3.8,3.8,0,0,1,.8-1.7l1.1-1.2,1.1-.8a4.9,4.9,0,0,0,1.3-.4l.9-.4a9,9,0,0,0,.8-1.9c.1-.4-.1-1.4.2-1.7s.1-.7,1.1-.7h1.2c.6.2.5,0,.9.4l1,1.2s.7.9.7,1.2-.3.2.2.4l.8.2s.4-.2.5.3a5.8,5.8,0,0,1,.1,1s-.8.4-.6.8.4.5.7.6h.5s-.2-.9.3-.8a3.7,3.7,0,0,1,1,.7,1.2,1.2,0,0,0,.2.7c.3.2.5.6.7.4a17.7,17.7,0,0,1,2.4.1" style="fill: none;stroke: #fff;stroke-miterlimit: 10;stroke-width: 0.565173476353961px"/>
      <path d="M90.3,175.7h-1l-.7-.3-1-.2-.8.3-.8.2H84.9c-.6.1-.9.7-1.1.9a6.7,6.7,0,0,0-1.1.7l-1.4.7s-1,.4-1,.7-.2,1.1-.2,1.5-.2.5-.2,1.2a5.6,5.6,0,0,0,.6,3.1,1.7,1.7,0,0,1,.4,1.4,1.3,1.3,0,0,0,.1.7l1.9,1.1" style="fill: none;stroke: #fff;stroke-miterlimit: 10;stroke-width: 0.565173476353961px"/>
      <path d="M63.4,110l-1,1.4-1.4-.2c-.1-.2-.2-.7-.4-.3a4.5,4.5,0,0,0-.2.8,1.2,1.2,0,0,0,.4.8c.3.3.6.4.7.7s.3.4.2.9a6.4,6.4,0,0,1-.4,1,5.1,5.1,0,0,0-.9.8c-.2.2-.8.2-1.2.6a1.3,1.3,0,0,0-.2,1.3,5.6,5.6,0,0,0,1.1,1.5,4.6,4.6,0,0,0,1.1.7l1.7,1.2,3.3,2.8,1.9,1.9s.9,1.2,1.3,1.9.4.8.8,1.1a2.9,2.9,0,0,0,1.1.4l1.3.3c.7.3.6.1.8.5a4.2,4.2,0,0,1,.7,1.3,2.5,2.5,0,0,1,.4,1.3c.1.7.4,1.2.1,1.6a3.6,3.6,0,0,0-.8,1.2,9.2,9.2,0,0,0-.1,1.6v1.1a.4.4,0,0,1-.6.1l-.5-.4c-.1-.1-.2-.6-.7-.6a2.6,2.6,0,0,0-1.2-.1H69.2c-.7-.1-.9-.3-1.4-.2a3.7,3.7,0,0,0-1,.4v.8s-.2,1.2,0,1.3.3-.1.3.4.3,1.3-.3,1.5a3.8,3.8,0,0,1-1.4.1s-1.3-.4-1.7-.1-.8.4-.8.8-.5-.5,0,1.5.4,2,1.1,2.3l1,.2c.2.1.3.6.2.9s-.5.7-.2,1a4.1,4.1,0,0,0,1.3.8l1.1,1a2.4,2.4,0,0,1,.7,1.4,3.7,3.7,0,0,1-.3,1.7c-.1.3-.5-.4-.2,1s.7,1.7.7,1.7a6.1,6.1,0,0,1,.7,1.3c.3.6-.4,1.3.2,1.5a1.4,1.4,0,0,0,1.2.3l1-.5a1.7,1.7,0,0,1,1.3,0c.7.3.7.4,1,.1a2.7,2.7,0,0,0,.6-.7s-.1-.3,1.2-.2h2.1a6.3,6.3,0,0,1,1.7-.1h1.1a.8.8,0,0,1,.8.1,2.6,2.6,0,0,1,.5,1.2c.1.3-.3,1-.3,1.7a2.6,2.6,0,0,0,.3,1.4l.8.7s.7-.6,1.1-.1a2.2,2.2,0,0,1,.7,1,2.7,2.7,0,0,1,0,1.8c-.2.7-.6.5-.7,1.3a13.6,13.6,0,0,0-.1,1.6c.1.2,1.1.3,1.3.7s.6,1.1.4,1.6-.5.1-.1,1.1l.4.9.6.8.5.9a12.5,12.5,0,0,1,.2,1.5" style="fill: none;stroke: #fff;stroke-miterlimit: 10;stroke-width: 0.565173476353961px"/>
      <path d="M76.8,90l.8,1.4s.3,1.9.3,2.1.4,1.3.5,1.7a3.9,3.9,0,0,0,.5,1.4c.3.3.3.3,1.3.6s1,.1,1.6.4,1,0,1.1.8-.2,1.2,0,1.7.5,1.2,0,1.9l-1,1.1-1.7,1.4c-.1.3-.3.4-.6.8a12.1,12.1,0,0,0-1,1.6l-.2,1.5-.6,1.1a1.6,1.6,0,0,0-.5.8c-.1.6-.1,2.8-.2,2.9a5.5,5.5,0,0,1-1.2,1.9,4.8,4.8,0,0,0-1.1,2.4,12.8,12.8,0,0,0-.1,1.9,19.1,19.1,0,0,0,0,2.4c.2.6.2,1.3.6,1.7a10,10,0,0,1,1,1.4,10.4,10.4,0,0,0,.7,1.2l1.7,2.1H91.3l3.3-5a11,11,0,0,0,.3-1.6,8.7,8.7,0,0,1,.3-1.3,2,2,0,0,1,.5-1,1.5,1.5,0,0,1,.6-.6l.9-.3,1.1.5a1.9,1.9,0,0,0,.8.4h.7a2.8,2.8,0,0,0,.1-.8,4.2,4.2,0,0,1,.2-1.1s.2-.5.6-.6a1.7,1.7,0,0,1,1-.3l.8-.2s.5,0,.9-.8-.3-.2.6-1.4a4.2,4.2,0,0,1,1.2-1.2,3.8,3.8,0,0,0,.9-1.1s-.4-.3.1-.7.5-.6,1-.5a2.7,2.7,0,0,0,1.1.2h1.3s1.4.3,1.9,0l.8-.5h.8a2.3,2.3,0,0,0,1.1-.1c.3-.2.4-.6.7-1.1a4,4,0,0,0,.6-1.2,1.7,1.7,0,0,1,1.5-.2,5.2,5.2,0,0,1,1.3.5l1.1,1.2,1.1,1.1,1.6,1c.4.3,0-1,.8.6a12.1,12.1,0,0,1,1.2,2.3c0,.4.3.6.1,1.2s-.4.9-.4,1.6,1.2,1.4,1.3,1.6a1.4,1.4,0,0,1,.5.7,1.5,1.5,0,0,1,0,.7l-1.2.7a2,2,0,0,0-.5.5,2.5,2.5,0,0,0-.1,1v.6l-1.4,2.4.6,1.8.7.7c.2.2.9,0,1.2.3a1.5,1.5,0,0,0,.6.6s-.2-1.1.2-1.1h.9a5.7,5.7,0,0,1-.1-1.4c.2-.1.8-.3,1-.1s.5-.1.7.5.6.7.2,1.2l-.7,1a1.2,1.2,0,0,0-.2.5c-.1.1-.1.5-.1.5a.7.7,0,0,1,0,.7l-.3.9a2.8,2.8,0,0,0-.1.8c0,.4.1.7.1.9s-.2-.8.3.8,1.2,2.2,1.1,2.5v.7a13.1,13.1,0,0,0,2.8,0l6.8-6.7h.4" style="fill: none;stroke: #fff;stroke-miterlimit: 10;stroke-width: 0.565173476353961px"/>
      <path d="M138.1,130.4l.4.9c.2.1,0,1.2,0,1.5a10.1,10.1,0,0,0,.3,1.7,4.7,4.7,0,0,0,.5,1,1,1,0,0,1,.6.8c0,.4.2.4,0,.9s2,.2-.2,1.1a17.1,17.1,0,0,1-2.9,1.1l-.9.7-.9,1a6.6,6.6,0,0,1-1.1,1.6c-.7.6-.6.8-1.4,1.3l-1.7,1.2-1.9.9s-.1-.1-1.6,1.1-1.5,2.1-1.3,2.8l.6,1.3.2,1.3-.9.7-1.3.9-.3.6-.5,1.4" style="fill: none;stroke: #fff;stroke-miterlimit: 10;stroke-width: 0.565173476353961px"/>
      <path d="M138.5,130.8l.3-2.1a13.1,13.1,0,0,1,0-2c.1-.4-.1-1,0-1.4s.1-.9.5-1.2.2-.4.9-.9a3.3,3.3,0,0,0,.9-1.3,7.8,7.8,0,0,1,.1-.9l.3-4.1-.6-1.3a12.5,12.5,0,0,0-.9-1.6v-1.2l.4-1.6.5-1.2.9-.4.9.3.7,1.4a12.7,12.7,0,0,0,.7,1.2c.2.5.5.7.6,1.1s.4.5.1,1l-.7,1.3a3.6,3.6,0,0,0-.6,1,3.1,3.1,0,0,0-.1,1,1.9,1.9,0,0,0,.4,1,1.4,1.4,0,0,0,.7.3c.4,0,.2-.5,1.3,0l1.7,1a5.5,5.5,0,0,1,1,.8l.6.8c.2.3.2.6.8.8l1.5.4a3.3,3.3,0,0,1,1.3.1l1.1.4h.5l.8-.7.4-.9s0-.4.9-.4.3-.4,1.4-.1a6.4,6.4,0,0,1,1.9.5l1.3.3s0-1,.4-.7.8.2.8.7.1.5.1.9a1.9,1.9,0,0,0,0,.8l.9.5s.5-.2.8.8.6,1.8.6,1.8l.6.8a4.1,4.1,0,0,1,.6,1.6,5.4,5.4,0,0,1,0,1.8c-.2.9-.1,1.2-.3,1.8s.1.6-.1.9-.6.3-.4.9.2.6.6.9.6,0,1.3.4l1,.5c.3.3.3.6,1,.7s.6-.4,1.4-.2l1.6.3h.7s.1-.3.2.8l.2,1.2,1.4.3" style="fill: none;stroke: #fff;stroke-miterlimit: 10;stroke-width: 0.565173476353961px"/>
      <path d="M145.9,119l1-.6a12,12,0,0,1,2,.6c.5.4,1,.9,1.4.8a2,2,0,0,0,1.4-.8,4,4,0,0,0,.7-1.2c.1-.1,0-.2.1-1s-.2-1.2.2-1.8.2-.8.7-.8.8.1,1.2-.1a1.1,1.1,0,0,0,.3-1.2c-.3-.4,1.3,0-.6-.9s-2.2-1.4-2.2-1.4l-.6-1.2v-3l1.6-1.9a14.4,14.4,0,0,0-.1-1.8,6.1,6.1,0,0,0-.3-1.5l-1.2-.3a.8.8,0,0,0-.3.7,1.4,1.4,0,0,1,0,1.1c-.1.3-.2.8-.2.8s-.8.6-.9.5-.6-.1-.8-.7-.5-1-.3-1.5.3-.9.4-1.2a.8.8,0,0,0,.2-.6l-.5-.4-.8-.4-.5-.9a6,6,0,0,1,.1-1.8l.7-1.1a4.4,4.4,0,0,0,1.1-1.1l.6-.9.2-.6.8-.6-.2-4.6s-.3,0-.5-.9-.4-1.5-.1-1.9a2.9,2.9,0,0,0,.4-1.1l1.9-.3" style="fill: none;stroke: #fff;stroke-miterlimit: 10;stroke-width: 0.565173476353961px"/>
      <path d="M95.2,76.8v1.8l.7.5a3.7,3.7,0,0,0,1,.4,2.6,2.6,0,0,1,1.2.1l.9.4a1.9,1.9,0,0,1,.7.6,6.9,6.9,0,0,1,.4,1,1.1,1.1,0,0,1,.4.5.9.9,0,0,0,.8.7l.9.3,1.1.6,1.3.8v.9a3.2,3.2,0,0,0,.4.7h1.3c.5.2.7,0,.9.4a3,3,0,0,1,.2,1,11.3,11.3,0,0,1-.2,1.4l-.2,1-.8.2-1.4.4-1.6.2c-.6,0-.7,0-.8.2s-.1,1-.1,1l.5.6.8.7s.1,1.2.2,1.7a5.3,5.3,0,0,1,.3,1.3,2.4,2.4,0,0,1,.1.7,4.8,4.8,0,0,1,0,1.2,4,4,0,0,0,0,1.1,3.8,3.8,0,0,0,.5.8h1.1l1-.3.6,1.3v.9c.1.1.1.5.9.2s.7-.4,1.4-.6a1.7,1.7,0,0,0,.8-.9.9.9,0,0,1,.8-.6h1.3a4.1,4.1,0,0,1,1.2.4,7.4,7.4,0,0,0,2.3,1.5c.9.5.9.6,1,.8s.2-.4.8-.1.9.4.9.8a1.4,1.4,0,0,1-.3.9c-.3.2-.4.3-.4.5s.3.6.3.9l-.2.7-.8,1.3" style="fill: none;stroke: #fff;stroke-miterlimit: 10;stroke-width: 0.565173476353961px"/>
      <path d="M118.4,105.8l1.3-1,1.2-.2c.1,0,.2-.5.2-.8a3.8,3.8,0,0,1,.5-.8,2.7,2.7,0,0,0,1-.4c.5-.4.8,0,.8-.7s.2-.5,0-1.1a11.8,11.8,0,0,0-.8-1.8,1.6,1.6,0,0,1-.4-1.1V95.7s-.1-1.4-.1-1.8a3.8,3.8,0,0,1,.1-.8s.8-.2.9-.8.4-.3,0-1.1a4.8,4.8,0,0,0-.9-1.4l-1.3-1.2-1.1-1.4-1-.8-1-.2a3.6,3.6,0,0,1-1.1-.6c-.1-.1-2-3.5-2.1-3.8l-.8-1.4V78.6a11.1,11.1,0,0,0,.2-1.8,2,2,0,0,0-.8-1.3l-1.3-1.1-.5-1.2-1.8-.7a3,3,0,0,1-1.2-.6l-1.2-1.2a5.4,5.4,0,0,0-1.2-.4h-2l-.7.5c-.4.5-.7.5-.7.5s-.8-.5-.5-1.1a7.6,7.6,0,0,1,1-1.4c.6-.8,1-.9,1.2-1.5s1.9-1.1.1-1.6a13.8,13.8,0,0,0-2.6-.4h-1.2l-.7-1.1a12.8,12.8,0,0,1,.5-1.7,2.7,2.7,0,0,0,.3-.8l-.8-2.1-2-.6" style="fill: none;stroke: #fff;stroke-miterlimit: 10;stroke-width: 0.565173476353961px"/>
      <path d="M106.2,42.2l-.6,1.4-.2.7c-.1.3-.2.4,0,.8l.4,1.1a1.1,1.1,0,0,1,.4.6,2.9,2.9,0,0,1-.2.8l-.7.7a1.3,1.3,0,0,0,.1.8l.5.9,1.2,1,1.2.5s.1.4.8.7l1.1.4,1.1.9,1.2.6c.5.3-.1-.7.7.5s.9,1.3.9,1.6L113,57.6l.3,1s0,.6.2.7.3.2.7.5a8.6,8.6,0,0,0,1.4.7s.8.5.9.8.2.5.2.7a3.7,3.7,0,0,1-.9,1.4,3,3,0,0,0-.6.9l.4,1.5.7.8c.2.4.5.1.4.7a4.8,4.8,0,0,0-.2,1.2l.2,1.1.2,1.2.4,1.5-.2,1.2a4.3,4.3,0,0,0,.2.9,2.5,2.5,0,0,0,.4,1,18.2,18.2,0,0,0,2.9,1.9l2.1,1.5a8.6,8.6,0,0,0,.7,1.4c.2.4.2.7.6,1a2.6,2.6,0,0,0,1,.5s.1-.7.5-.7l1.1.2a5.9,5.9,0,0,0,.8.8l.8.2c.3,0,.3-.5,1,.2l1.7,1.7a2.4,2.4,0,0,1,.8.6c.4.6,1.1.7,1.3,1.3s-.2,1.2,1,1.1a4.7,4.7,0,0,1,1.9-.2c.8,0,1.1-.1,1.6.3a2.2,2.2,0,0,0,1,.7c.2.1.6-.1.9.1s.4.2.5.6.2-.7.3.7.3,1.5.6,1.8l.8,1.3a13,13,0,0,1,.5,1.4l-.3,1.1a2.4,2.4,0,0,0,.1,1.1c.1.5.3.4.4,1.1s.4.8.6,1.5l.4,1.3s-.7,2.3-.5,2.6.5.4.5,1.1a4.7,4.7,0,0,1,.2,1.6,6.3,6.3,0,0,0-.2,1.5,7.5,7.5,0,0,0-.2,1.1l-.8,2" style="fill: none;stroke: #fff;stroke-miterlimit: 10;stroke-width: 0.565173476353961px"/>
      <path d="M147.1,30.9l-.6,1.7-1.2,1.3v1.2c0,.5.4,1.3,0,1.7a4.1,4.1,0,0,0-.6,1,11.4,11.4,0,0,0,.6,1.5c.2.4.1-.2.8.9s.7,1.3.7,1.4-.7-.1-.9.2-.7.5-.5.8a1.6,1.6,0,0,0,.5.6,1.1,1.1,0,0,1,.9-.1l.7.4-.5,1-.6,1.3a1.1,1.1,0,0,0,0,.6,16.2,16.2,0,0,1,.1,2.1s-.5.2-.6.4a12.3,12.3,0,0,0-.8,1.2,2.2,2.2,0,0,1-.9.9c-.6.3-1.2.3-1.8.6s-.5.6-1.1.7a2.7,2.7,0,0,1-1.2.2,4.8,4.8,0,0,0-1.4.6s-1.1.4-1.1,1,.1.9-.3,1.5-1.1,1.2-1.4,1.7a9.2,9.2,0,0,0-.7,1.3l-.2,1.9a7.1,7.1,0,0,0,.5,1.6c.2.3.8.7,1,1.2s1.6,1.1,1.8,1.3a6.2,6.2,0,0,1,.9,1.2l.5,1.1.7.9a4,4,0,0,0,.3,1.5,3.2,3.2,0,0,0,.7,1.3c.2.4.6.7.6,1s.3.6.1.9l-.6.4a1.1,1.1,0,0,0-.9-.4l-1.1.4H138l-1.2-.5h-.9L134,74.2l-.3.8.8.8,1.4.8a2.4,2.4,0,0,1,.8.9l.8,1.1c.2.5.4.6.5.9a4.8,4.8,0,0,1,0,1.2c-.1.5-.4.6-.1.9s.5.7,1,.8.7-.1.9.3l.4.9.4,1a2.1,2.1,0,0,0,.5.8,1.5,1.5,0,0,1,.3.7,3,3,0,0,1-.3.9l-1,1.4" style="fill: none;stroke: #fff;stroke-miterlimit: 10;stroke-width: 0.565173476353961px"/>
      <path d="M154.8,20.4l2-.4a7.1,7.1,0,0,1,1.7-.5h1.6a10.1,10.1,0,0,1,1.8,0c.4.1.6-.3,1,0a1.4,1.4,0,0,1,.5.9.7.7,0,0,1,.1.8,2.7,2.7,0,0,0-.6,1c-.2.4-.3.5-.2.8l.5.5.4-.4.5-.5c.2,0,.2-.4.6.1s.8.9.9,1.2-.2.8.3,1,.7-.1,1.2,0,.6-.1.8.4.3.9,0,1.4-.5,1-.8,1.2l-1.2.8-.5.7.4,1.1a.9.9,0,0,0,1.2.7c1.1-.3.4-1,1.7-.8a3.1,3.1,0,0,1,1.7.8s.5.7.8.8.7.3.9.1,2-.3,2-.3" style="fill: none;stroke: #fff;stroke-miterlimit: 10;stroke-width: 0.586912539066408px"/>
      <g>
        <line x1="149.1" y1="110.7" x2="198.1" y2="110.7" style="fill: none;stroke: #1c45a5;stroke-miterlimit: 10;stroke-width: 0.753564635138614px"/>
        <path d="M149.2,112.4a1.7,1.7,0,0,1-1.7-1.7,1.6,1.6,0,0,1,1.7-1.7,1.7,1.7,0,0,1,1.7,1.7A1.8,1.8,0,0,1,149.2,112.4Z" style="fill: #1c45a5"/>
      </g>
      <g>
        <line x1="130" y1="59.4" x2="168.3" y2="59.4" style="fill: none;stroke: #1c45a5;stroke-miterlimit: 10;stroke-width: 0.753564635138614px"/>
        <path d="M130.1,61.1a1.7,1.7,0,0,1-1.7-1.7,1.8,1.8,0,0,1,1.7-1.7,1.7,1.7,0,0,1,1.7,1.7A1.6,1.6,0,0,1,130.1,61.1Z" style="fill: #1c45a5"/>
      </g>
      <g onmouseover="addClassBlue('magdalena')" onmouseout="removeClassBlue('magdalena')" class="hoverable magdalena">
        <circle cx="180.1" cy="59.1" r="11.8"/>
        <text transform="translate(176.5 66.5)" style="font-size: 19.815719604492188px;fill: #fff;font-family: Mundial-DemiBold, Mundial;font-weight: 300">1</text>
      </g>
      <g onmouseover="addClassBlue('cesar')" onmouseout="removeClassBlue('cesar')" class="hoverable cesar">
        <circle cx="209.5" cy="110.7" r="11.8"/>
        <text transform="translate(204.2 116.7)" style="font-size: 19.815719604492188px;fill: #fff;font-family: Mundial-DemiBold, Mundial;font-weight: 300">2</text>
      </g>
      <g onmouseover="addClassBlue('cauca')" onmouseout="removeClassBlue('cauca')" class="hoverable cauca">
        <circle cx="11.8" cy="240.1" r="11.8"/>
        <text transform="translate(6.3 247.5)" style="font-size: 19.815719604492188px;fill: #fff;font-family: Mundial-DemiBold, Mundial;font-weight: 300">3</text>
      </g>
      <g onmouseover="addClassBlue('putumayo')" onmouseout="removeClassBlue('putumayo')" class="hoverable putumayo">
        <circle cx="44.9" cy="312.1" r="11.8"/>
        <text transform="translate(39.3 319.5)" style="font-size: 19.815719604492188px;fill: #fff;font-family: Mundial-DemiBold, Mundial;font-weight: 300">4</text>
      </g>
      <g>
        <line x1="70.9" y1="240.2" x2="21.9" y2="240.2" style="fill: none;stroke: #1c45a5;stroke-miterlimit: 10;stroke-width: 0.753564635138614px"/>
        <path d="M70.8,238.5a1.6,1.6,0,0,1,1.7,1.7,1.7,1.7,0,0,1-1.7,1.7,1.8,1.8,0,0,1-1.7-1.7A1.7,1.7,0,0,1,70.8,238.5Z" style="fill: #1c45a5"/>
      </g>
      <g>
        <line x1="104" y1="312.1" x2="55" y2="312.1" style="fill: none;stroke: #1c45a5;stroke-miterlimit: 10;stroke-width: 0.753564635138614px"/>
        <path d="M104,310.4a1.7,1.7,0,0,1,0,3.4,1.7,1.7,0,0,1,0-3.4Z" style="fill: #1c45a5"/>
      </g>
    </g>
  </g>
</svg>
